<svg xmlns="http://www.w3.org/2000/svg"  viewBox="0 0 64 64" width="128px" height="128px"><path fill="#b5c4e0" d="M12 42A8 8 0 1 0 12 58 8 8 0 1 0 12 42zM49.92 4A7.84 7.84 0 1 0 49.92 19.68 7.84 7.84 0 1 0 49.92 4z"/><path fill="#c2cde7" d="M32 4A28 28 0 1 0 32 60A28 28 0 1 0 32 4Z"/><path fill="#f9dd8f" d="M32 10.719999999999999A21.28 21.28 0 1 0 32 53.28A21.28 21.28 0 1 0 32 10.719999999999999Z"/><path fill="#f283a5" d="M25.762 38.158c2.101-1.295 2.71-3.316 2.847-4.81.092-1.009-.851-1.808-1.841-1.594-1.376.297-3.204.765-4.169 1.314-3.907 2.221-4.78 6.749-2.81 10.214 2.044 3.595 6.62 4.853 10.214 2.81.625.172 1.331.366 2.043.562 1.439-.818 1.942-2.647 1.124-4.086-.818-1.439-2.647-1.942-4.086-1.124-.196.711-.39 1.418-.562 2.043-1.547.88-3.569.219-4.261-1.486C23.676 40.56 24.438 38.974 25.762 38.158zM36.401 18.209c-3.515 1.459-5.183 5.496-3.724 9.01-.228.551-.485 1.174-.745 1.802.584 1.407 2.198 2.073 3.604 1.489 1.407-.584 2.073-2.198 1.489-3.604-.628-.259-1.251-.517-1.802-.745-.628-1.513.204-3.284 1.84-3.723 1.382-.371 2.745.504 3.34 1.806.944 2.066 2.722 2.851 4.07 3.145.911.199 1.748-.572 1.664-1.501-.116-1.291-.335-3.013-.727-3.957C43.826 18.112 39.79 16.802 36.401 18.209z"/><path fill="#7e808a" d="M28.504 19.944c-.465-.897-7.366-.391-9.338.822-1.972 1.213-2.587 3.795-1.374 5.767s3.795 2.587 5.767 1.374S28.969 20.842 28.504 19.944zM34.919 38.731c-.141 1.589 7.177 3.017 9.569 2.516 2.392-.501 3.925-2.846 3.423-5.238-.501-2.392-2.846-3.925-5.238-3.423C40.281 33.086 35.06 37.142 34.919 38.731z"/><g><path fill="#8d6c9f" d="M57.109 17.518C58.327 15.944 59 14.007 59 12c0-4.963-4.02-9-8.96-9-2.331 0-4.554.918-6.217 2.53C40.209 3.909 36.21 3 32 3 16.01 3 3 16.01 3 32c0 4.19.9 8.171 2.506 11.771C3.913 45.414 3 47.62 3 49.92c0 4.874 3.966 8.84 8.84 8.84 1.94 0 3.838-.651 5.372-1.827C21.545 59.513 26.601 61 32 61c15.99 0 29-13.01 29-29C61 26.727 59.578 21.783 57.109 17.518zM50.04 5C53.878 5 57 8.141 57 12c0 1.31-.367 2.581-1.043 3.68-2.609-3.818-6.104-6.984-10.19-9.197C46.98 5.533 48.478 5 50.04 5zM11.84 56.76C8.068 56.76 5 53.691 5 49.92c0-1.532.526-3.009 1.456-4.204 2.157 4.001 5.23 7.436 8.931 10.033C14.322 56.402 13.116 56.76 11.84 56.76zM32 59C17.112 59 5 46.888 5 32S17.112 5 32 5c4.174 0 8.13.953 11.662 2.652.029.012.054.031.083.041C52.766 12.069 59 21.32 59 32 59 46.888 46.888 59 32 59zM5.39 14.226c.176.126.38.187.581.187.312 0 .619-.146.814-.418.321-.449.218-1.073-.231-1.396l-1.626-1.164c-.448-.321-1.074-.217-1.396.231-.321.449-.218 1.073.231 1.396L5.39 14.226z"/><path fill="#8d6c9f" d="M8.06 10.773c.193.183.439.273.687.273.266 0 .53-.105.727-.313.38-.401.361-1.034-.04-1.413L7.979 7.946c-.402-.379-1.035-.362-1.413.04-.38.401-.361 1.034.04 1.413L8.06 10.773zM11.171 7.712c.197.245.487.372.779.372.22 0 .442-.072.627-.222.43-.347.497-.977.15-1.406l-1.256-1.557c-.346-.43-.977-.499-1.406-.15-.43.347-.497.977-.15 1.406L11.171 7.712zM14.666 5.1c.188.312.519.483.857.483.176 0 .354-.046.516-.144.473-.285.625-.9.34-1.373l-1.033-1.713c-.285-.474-.898-.627-1.373-.34-.473.285-.625.9-.34 1.373L14.666 5.1zM52.896 34.336c-.557-.09-1.058.285-1.145.83-.232 1.458-.627 2.89-1.174 4.255-.205.514.044 1.096.557 1.301.122.049.248.071.372.071.396 0 .771-.237.929-.628.602-1.504 1.036-3.08 1.291-4.685C53.813 34.935 53.44 34.423 52.896 34.336z"/><path fill="#8d6c9f" d="M47.959,44.056C44.14,49.104,38.322,52,32,52c-11.028,0-20-8.972-20-20s8.972-20,20-20 c10.578,0,19.349,8.265,19.966,18.814c0.032,0.552,0.49,0.972,1.057,0.939c0.551-0.032,0.972-0.505,0.939-1.057 C53.283,19.092,43.637,10,32,10c-12.131,0-22,9.869-22,22s9.869,22,22,22c6.955,0,13.354-3.185,17.555-8.737 c0.333-0.44,0.246-1.067-0.194-1.401C48.919,43.529,48.292,43.615,47.959,44.056z"/><path fill="#8d6c9f" d="M24.084 28.76c1.789-1.101 6.235-7.488 5.308-9.276-.289-.558-.904-.728-1.107-.784-2.004-.557-7.717.031-9.643 1.216-2.438 1.5-3.201 4.704-1.701 7.144.979 1.592 2.686 2.47 4.431 2.47C22.299 29.528 23.237 29.28 24.084 28.76zM18.644 26.011c-.922-1.5-.452-3.471 1.046-4.393 1.167-.717 4.471-1.143 6.537-1.143.501 0 .93.025 1.237.077-.478 1.488-2.912 5.571-4.428 6.504C21.536 27.977 19.565 27.509 18.644 26.011zM43.283 42.34c.557 0 1.04-.036 1.41-.114 2.928-.613 4.81-3.494 4.196-6.422-.297-1.418-1.129-2.636-2.342-3.429-1.212-.793-2.659-1.063-4.08-.769-2.534.531-8.342 4.742-8.545 7.037-.033.375.057.937.674 1.485C36.094 41.459 40.563 42.34 43.283 42.34zM42.878 33.563c1.847-.382 3.667.802 4.055 2.65.387 1.849-.802 3.667-2.649 4.055-2.073.437-7.354-.721-8.318-1.587C36.51 37.489 40.765 34.007 42.878 33.563zM24.049 47.766c.749.206 1.511.308 2.267.308 1.313 0 2.612-.308 3.808-.911l2.058.565.359-.205c1.916-1.088 2.588-3.533 1.499-5.449-1.088-1.916-3.531-2.587-5.449-1.499l-.36.205-.548 1.992c-.414.14-.872.138-1.297-.008-.551-.191-.977-.596-1.197-1.139-.413-1.019.24-2.087 1.099-2.615 2.46-1.516 3.162-3.866 3.318-5.57.072-.791-.229-1.549-.83-2.08-.603-.534-1.431-.752-2.219-.583-2.091.453-3.589.932-4.451 1.422-2.081 1.184-3.532 3.054-4.085 5.268-.529 2.118-.209 4.359.9 6.311C20.04 45.747 21.861 47.164 24.049 47.766zM19.96 37.95c.419-1.678 1.531-3.103 3.133-4.014.667-.379 2.047-.807 3.886-1.205.04-.009.079-.013.115-.013.178 0 .304.092.354.138.069.062.184.194.164.4-.166 1.818-.966 3.182-2.375 4.05-1.836 1.131-2.637 3.264-1.903 5.071.436 1.068 1.309 1.898 2.396 2.275 1.091.378 2.29.271 3.287-.298l.36-.204.548-1.994c.885-.299 1.895.059 2.376.904.263.464.33 1.002.188 1.517-.107.391-.325.731-.626.988l-1.994-.549-.36.205c-1.506.855-3.255 1.074-4.93.614-1.672-.46-3.064-1.543-3.921-3.049C19.804 41.285 19.556 39.567 19.96 37.95zM31.009 29.405c.6 1.443 2.002 2.316 3.476 2.316.479 0 .967-.093 1.437-.287 1.913-.795 2.823-2.998 2.029-4.911l-.159-.384-1.748-.722c-.065-.366-.013-.748.156-1.091.227-.461.626-.789 1.124-.923.94-.247 1.799.442 2.172 1.257 1.119 2.448 3.21 3.366 4.766 3.705.744.164 1.492-.035 2.065-.54.575-.508.877-1.266.809-2.026-.176-1.967-.444-3.396-.799-4.251-.854-2.055-2.414-3.607-4.394-4.371-1.896-.73-3.997-.692-5.925.107-1.946.809-3.462 2.327-4.268 4.276-.751 1.817-.801 3.806-.148 5.645l-.751 1.816L31.009 29.405zM33.602 26.836c-1.246-3.002.182-6.457 3.184-7.703 1.448-.603 3.025-.634 4.437-.09 1.465.565 2.625 1.728 3.267 3.273.269.646.501 1.947.654 3.662.017.188-.092.306-.14.348-.064.057-.17.121-.315.086-1.616-.352-2.751-1.221-3.374-2.583-.842-1.841-2.735-2.835-4.509-2.356-1.047.281-1.922 1-2.4 1.972-.479.974-.518 2.104-.104 3.102l.159.383 1.749.722c.145.796-.279 1.614-1.056 1.937-.776.323-1.654.045-2.116-.618l.723-1.75L33.602 26.836z"/></g></svg>