<svg xmlns="http://www.w3.org/2000/svg"  viewBox="0 0 64 64" width="128px" height="128px"><path fill="#efc88e" d="M37,18H15.322c-1.223,0-2.159,1.087-1.978,2.297l4.145,36.297C17.783,58.551,19.465,60,21.445,60 h21.111c1.98,0,3.662-1.449,3.956-3.407l4.145-36.297C50.837,19.087,49.9,18,48.678,18"/><path fill="#f9dd8f" d="M48.678,18H37H15.322c-1.223,0-2.159,1.087-1.978,2.297l3.871,34.684 C17.326,54.985,17.433,55,17.545,55h29.236l3.874-34.703C50.837,19.087,49.9,18,48.678,18z"/><path fill="#e3f2ff" d="M12,18c-0.848-0.382-1.623-1.509-1.379-2.485l0.621-2.485c0.445-1.781,2.045-3.03,3.881-3.03h33.754 c1.835,0,3.435,1.249,3.881,3.03l0.621,2.485C53.618,16.472,52.819,17.604,52,18h-1"/><path fill="#efc88e" d="M32 30A8 8 0 1 0 32 46A8 8 0 1 0 32 30Z"/><path fill="#ed7899" d="M40,10l0.678-5.392C40.865,3.673,41.686,3,42.64,3h1.921c1.262,0,2.209,1.155,1.961,2.392L46,10"/><g><path fill="#8d6c9f" d="M45,17h-4c-0.553,0-1,0.447-1,1s0.447,1,1,1h4c0.553,0,1-0.447,1-1S45.553,17,45,17z"/><path fill="#8d6c9f" d="M54.349,15.272l-0.621-2.484C53.171,10.558,51.176,9,48.877,9H46.82l0.682-3.411 c0.178-0.885-0.049-1.793-0.621-2.49C46.309,2.4,45.463,2,44.561,2H42.64c-1.426,0-2.663,1.015-2.941,2.411L38.78,9H15.123 c-2.299,0-4.294,1.558-4.851,3.788l-0.621,2.484c-0.354,1.411,0.354,2.868,1.68,3.465c0.133,0.06,0.272,0.088,0.409,0.088 c0.118,0,0.232-0.028,0.341-0.068L16.5,56.742C16.871,59.209,18.95,61,21.444,61h21.111c2.494,0,4.573-1.791,4.948-4.291 l4.42-37.996c0.255,0.108,0.55,0.119,0.82-0.011C54.017,18.087,54.692,16.645,54.349,15.272z M41.659,4.803 C41.752,4.338,42.164,4,42.64,4h1.921c0.301,0,0.583,0.134,0.773,0.366s0.266,0.535,0.207,0.83L44.781,9H40.82L41.659,4.803z M51.873,16.901c-0.051,0.025-0.085,0.067-0.13,0.099h-3.065c-0.553,0-1,0.447-1,1s0.447,1,1,1h1.199l-4.355,37.445 C45.3,57.926,44.052,59,42.556,59H21.444c-1.496,0-2.744-1.074-2.962-2.521L14.123,19H37c0.553,0,1-0.447,1-1s-0.447-1-1-1H12.273 c-0.042-0.027-0.074-0.066-0.121-0.087c-0.379-0.171-0.693-0.622-0.561-1.156l0.621-2.484C12.547,11.935,13.744,11,15.123,11 h33.754c1.379,0,2.576,0.935,2.911,2.272l0.621,2.484C52.538,16.275,52.237,16.726,51.873,16.901z"/><path fill="#8d6c9f" d="M22 53c-.553 0-1 .447-1 1v2c0 .553.447 1 1 1s1-.447 1-1v-2C23 53.447 22.553 53 22 53zM27 53c-.553 0-1 .447-1 1v2c0 .553.447 1 1 1s1-.447 1-1v-2C28 53.447 27.553 53 27 53zM32 53c-.553 0-1 .447-1 1v2c0 .553.447 1 1 1s1-.447 1-1v-2C33 53.447 32.553 53 32 53zM37 53c-.553 0-1 .447-1 1v2c0 .553.447 1 1 1s1-.447 1-1v-2C38 53.447 37.553 53 37 53zM42 53c-.553 0-1 .447-1 1v2c0 .553.447 1 1 1s1-.447 1-1v-2C43 53.447 42.553 53 42 53zM32 29c-4.963 0-9 4.037-9 9s4.037 9 9 9 9-4.037 9-9S36.963 29 32 29zM32 45c-3.859 0-7-3.141-7-7s3.141-7 7-7 7 3.141 7 7S35.859 45 32 45z"/></g></svg>