<svg xmlns="http://www.w3.org/2000/svg"  viewBox="0 0 64 64" width="128px" height="128px"><path fill="#cad9ed" d="M32 3A29 29 0 1 0 32 61A29 29 0 1 0 32 3Z"/><path fill="#dfe9f7" d="M32 61c16.016 0 29-12.984 29-29 0-.672-.031-1.337-.076-1.998L29.807 60.909C30.531 60.963 31.261 61 32 61zM25.264 60.205l34.941-34.941c-.43-1.806-1.028-3.545-1.778-5.202L20.063 58.427C21.719 59.177 23.458 59.775 25.264 60.205zM17.747 57.253l39.506-39.506c-.417-.737-.862-1.455-1.34-2.15L15.597 55.913C16.292 56.391 17.01 56.836 17.747 57.253z"/><path fill="#72caaf" d="M22 34c0-8-4-8-12-8C10 34 14 34 22 34zM14 44c0-8 4-8 12-8C26 44 22 44 14 44z"/><path fill="#97e0bb" d="M34,26h-5.422c0.286-0.653,0.441-1.375,0.42-2.138c-0.075-2.684-2.415-4.914-5.1-4.861 C21.184,19.055,19,21.273,19,24c0,1.575,0.728,2.98,1.867,3.897c0.718,0.578,0.718,1.629,0,2.207C19.728,31.02,19,32.425,19,34 c0,1.899,1.058,3.55,2.617,4.397c0.542,0.294,0.566,1.049,0.099,1.452c-0.933,0.805-1.437,2.093-1.121,3.476 c0.289,1.265,1.316,2.292,2.581,2.581c2.291,0.523,4.325-1.204,4.325-3.406c0-0.171-0.027-0.335-0.05-0.5H34V26z"/><path fill="#ffeb97" d="M52.894,29.857c-0.973-9.828-8.923-17.777-18.751-18.751c-5.813-0.576-11.202,1.221-15.315,4.537 c-0.938,0.756-1.039,2.146-0.187,2.997l26.718,26.718c0.852,0.852,2.241,0.75,2.997-0.187 C51.673,41.059,53.469,35.67,52.894,29.857z"/><path fill="#ffeb97" d="M52.894,29.857c-0.973-9.828-8.923-17.777-18.751-18.751c-5.813-0.576-11.202,1.221-15.315,4.537 c-0.938,0.756-1.039,2.146-0.187,2.997l26.718,26.718c0.852,0.852,2.241,0.75,2.997-0.187 C51.673,41.059,53.469,35.67,52.894,29.857z"/><path fill="none" stroke="#f9dd8f" stroke-linecap="round" stroke-miterlimit="10" stroke-width="4" d="M49.938,33.503 c0.091-1.104,0.081-2.23-0.03-3.35c-0.838-8.468-7.593-15.223-16.062-16.062c-1.817-0.182-3.635-0.096-5.402,0.258"/><path fill="#f283a5" d="M38 40A4 4 0 1 0 38 48A4 4 0 1 0 38 40Z"/><path fill="#f283a5" d="M34,34c-2.209,0-4,1.791-4,4s1.791,4,4,4s4-1.791,4-4"/><path fill="#f283a5" d="M34.603,46.739C33.956,48.077,32.586,49,31,49c-2.209,0-4-1.791-4-4s1.791-4,4-4l3,2L34.603,46.739z"/><path fill="#e3f2ff" d="M46.42 49L47.27 50.56 48.84 51.42 47.27 52.27 46.42 53.84 45.56 52.27 44 51.42 45.56 50.56zM40.65 53L41.23 54.06 42.3 54.65 41.23 55.23 40.65 56.3 40.07 55.23 39 54.65 40.07 54.06z"/><g><path fill="#906a99" d="M32,2C15.458,2,2,15.458,2,32s13.458,30,30,30s30-13.458,30-30S48.542,2,32,2z M32,60 C16.561,60,4,47.439,4,32S16.561,4,32,4s28,12.561,28,28S47.439,60,32,60z"/><path fill="#906a99" d="M32.052 14c-.001 0-.002 0-.003 0-.551 0-.998.446-1 .997l-.006 2C31.041 17.55 31.487 17.998 32.04 18c.001 0 .002 0 .003 0 .551 0 .998-.446 1-.997l.006-2C33.051 14.45 32.604 14.002 32.052 14zM37.354 14.827c-.528-.168-1.088.126-1.255.651l-.604 1.907c-.167.526.125 1.089.651 1.255.101.032.202.047.302.047.425 0 .818-.272.953-.698l.604-1.907C38.172 15.556 37.88 14.993 37.354 14.827zM40.771 17.444l-1.14 1.644c-.315.453-.202 1.076.252 1.391.173.121.372.179.568.179.317 0 .629-.15.822-.431l1.14-1.644c.315-.453.202-1.076-.252-1.391C41.711 16.876 41.085 16.99 40.771 17.444zM46.061 20.843c-.344-.431-.975-.503-1.405-.157l-1.563 1.249c-.432.345-.502.975-.157 1.405.197.247.488.376.782.376.219 0 .439-.071.623-.219l1.563-1.249C46.335 21.903 46.405 21.273 46.061 20.843zM46.34 27.502l1.859-.738c.514-.204.764-.785.561-1.299-.204-.514-.787-.763-1.299-.561l-1.859.738c-.514.204-.764.785-.561 1.299.156.393.532.631.93.631C46.094 27.572 46.219 27.55 46.34 27.502zM48.888 29.779l-1.995.138c-.551.038-.967.516-.929 1.067.037.527.476.931.997.931.023 0 .047-.001.07-.002l1.995-.138c.551-.038.967-.516.929-1.067S49.422 29.758 48.888 29.779z"/><path fill="#906a99" d="M53.889,29.759C52.863,19.4,44.601,11.138,34.241,10.111c-5.828-0.577-11.522,1.111-16.041,4.753 c-0.677,0.546-1.092,1.353-1.137,2.214c-0.045,0.845,0.272,1.672,0.87,2.269l1.181,1.181C18.394,21.536,18,22.738,18,24 c0,0.559,0.085,1.104,0.233,1.628C16.131,25.006,13.379,25,10,25c-0.553,0-1,0.447-1,1c0,7.134,3.194,8.712,9.084,8.951 c0.03,0.19,0.064,0.378,0.112,0.563C14.519,36.445,13,38.965,13,44c0,0.553,0.447,1,1,1c2.35,0,4.39-0.01,6.113-0.219 c0.61,1.044,1.632,1.824,2.841,2.1c0.345,0.079,0.691,0.117,1.032,0.117c0.795,0,1.566-0.207,2.24-0.59 C26.84,48.477,28.735,50,31,50c1.586,0,3.068-0.776,4.003-2.023C35.84,48.61,36.871,49,38,49c2.628,0,4.766-2.046,4.962-4.625 l1.69,1.69c0.561,0.561,1.322,0.874,2.111,0.874c0.052,0,0.104-0.001,0.157-0.004c0.86-0.046,1.667-0.46,2.214-1.137 C52.777,41.282,54.466,35.586,53.889,29.759z M11.021,27.002c5.182,0.019,7.903,0.246,9.123,2.408 c-0.257,0.216-0.491,0.452-0.705,0.703C19.305,30.046,19.16,30,19,30c-2.526,0-4.278-1.693-4.293-1.707 c-0.391-0.391-1.023-0.391-1.414,0s-0.391,1.023,0,1.414c0.088,0.088,2.061,1.99,5.07,2.243c-0.117,0.323-0.201,0.658-0.262,1.001 C13.125,32.753,11.237,31.747,11.021,27.002z M19.048,37.369c0.234,0.344,0.499,0.664,0.802,0.954 c-1.497,0.426-2.8,1.213-3.557,1.97c-0.391,0.391-0.391,1.023,0,1.414C16.488,41.902,16.744,42,17,42s0.512-0.098,0.707-0.293 c0.521-0.521,1.382-1.044,2.36-1.371c-0.415,0.756-0.61,1.621-0.548,2.502c-1.287,0.13-2.793,0.158-4.497,0.161 C15.216,39.025,16.616,37.87,19.048,37.369z M23.398,44.932c-0.891-0.204-1.626-0.939-1.83-1.83 c-0.215-0.945,0.084-1.878,0.801-2.496c0.485-0.419,0.734-1.046,0.666-1.678c-0.066-0.607-0.409-1.121-0.941-1.41 C20.802,36.816,20,35.469,20,34c0-1.217,0.544-2.354,1.493-3.117c0.579-0.467,0.912-1.152,0.912-1.883s-0.333-1.416-0.912-1.883 C20.544,26.354,20,25.217,20,24c0-0.724,0.204-1.414,0.564-2.023L32.007,33.42C30.24,34.192,29,35.952,29,38 c0,0.809,0.211,1.562,0.553,2.239c-1.65,0.503-2.933,1.825-3.373,3.502c-0.007,0.011-0.019,0.017-0.025,0.028 C25.591,44.727,24.512,45.185,23.398,44.932z M34,41c-1.654,0-3-1.346-3-3c0-1.526,1.149-2.775,2.625-2.962l3.337,3.337 C36.775,39.851,35.526,41,34,41z M31,48c-1.654,0-3-1.346-3-3s1.346-3,3-3c0.009,0,0.016-0.005,0.025-0.005 c0.611,0.456,1.322,0.778,2.102,0.917C33.047,43.268,33,43.633,33,44c0,0.877,0.247,1.689,0.645,2.406 C33.121,47.39,32.121,48,31,48z M38,47c-1.654,0-3-1.346-3-3c0-0.416,0.103-0.809,0.265-1.182c1.1-0.29,2.046-0.939,2.713-1.822 C37.986,40.996,37.992,41,38,41c1.654,0,3,1.346,3,3S39.654,47,38,47z M47.578,44.543c-0.19,0.235-0.469,0.38-0.764,0.396 c-0.273,0.021-0.547-0.087-0.748-0.287L19.348,17.933c-0.2-0.2-0.303-0.466-0.287-0.748c0.016-0.295,0.159-0.573,0.396-0.764 C23.035,13.536,27.429,12,32.006,12c0.676,0,1.356,0.034,2.038,0.102c9.414,0.933,16.923,8.441,17.854,17.854 C52.423,35.258,50.889,40.438,47.578,44.543z"/></g></svg>