<svg xmlns="http://www.w3.org/2000/svg"  viewBox="0 0 64 64" width="128px" height="128px"><path fill="#faefde" d="M51,39H13c-2.209,0-4,1.791-4,4v10c0,2.209,1.791,4,4,4h38c2.209,0,4-1.791,4-4V43 C55,40.791,53.209,39,51,39z"/><path fill="#efd8be" d="M10,55.62c0.733,0.839,1.798,1.38,3,1.38h38c1.202,0,2.267-0.541,3-1.38V52H10V55.62z"/><path fill="#efc88e" d="M45.571,7H18.429C10.933,7,4.857,13.076,4.857,20.571v0C4.857,23.07,6.502,27,9,27h44 c2.498,0,6.143-3.93,6.143-6.429v0C59.143,13.076,53.067,7,45.571,7z"/><path fill="#f9e3ae" d="M47.028,7.087c-1.449,1.324-2.361,3.225-2.361,5.342c0,1.499-1.215,2.714-2.714,2.714 s-2.714-1.215-2.714-2.714c0-2.158,0.944-4.095,2.442-5.421h4.074C45.692,7.007,45.633,7,45.571,7H18.429 C12.134,7,6.856,11.291,5.321,17.104C5.321,21,5,22,5,22s53,0,54,0C59,12,52.667,7.691,47.028,7.087z M22.952,12.429 c0,1.499-1.215,2.714-2.714,2.714c-1.499,0-2.714-1.215-2.714-2.714c0-2.158,0.944-4.095,2.442-5.421h5.429 C23.896,8.334,22.952,10.271,22.952,12.429z M36.251,7.008c-1.498,1.326-2.442,3.263-2.442,5.421c0,1.499-1.215,2.714-2.714,2.714 c-1.499,0-2.714-1.215-2.714-2.714c0-2.158,0.944-4.095,2.442-5.421"/><path fill="#faefde" d="M6 45h2v6H6c-1.105 0-5-3-5-3S4.895 45 6 45zM58 51h-2v-6h2c1.105 0 5 3 5 3S59.105 51 58 51z"/><g><path fill="#8d6c9f" d="M10 28h44c2.564 0 6-2.966 6-6v-2c0-7.981-6.203-14-14.429-14H18.429C10.203 6 4 12.019 4 20v2C4 25.028 6.972 28 10 28zM6 20c0-6.639 5.037-11.679 11.81-11.972-.826 1.306-1.287 2.826-1.287 4.401 0 .552.447 1 1 1s1-.448 1-1c0-1.668.678-3.26 1.858-4.429h8.304c-.838 1.312-1.305 2.843-1.305 4.429 0 .552.447 1 1 1s1-.448 1-1c0-1.668.677-3.26 1.857-4.429h8.305c-.838 1.312-1.305 2.843-1.305 4.429 0 .552.447 1 1 1s1-.448 1-1c0-1.668.677-3.26 1.857-4.429h3.476C52.657 8 58 13.159 58 20v2c0 1.984-2.566 4-4 4H10c-1.944 0-4-2.056-4-4V20zM47 50c-.553 0-1 .448-1 1v2c0 .552.447 1 1 1s1-.448 1-1v-2C48 50.448 47.553 50 47 50zM42 50c-.553 0-1 .448-1 1v2c0 .552.447 1 1 1s1-.448 1-1v-2C43 50.448 42.553 50 42 50zM37 50c-.553 0-1 .448-1 1v2c0 .552.447 1 1 1s1-.448 1-1v-2C38 50.448 37.553 50 37 50zM32 50c-.553 0-1 .448-1 1v2c0 .552.447 1 1 1s1-.448 1-1v-2C33 50.448 32.553 50 32 50zM27 50c-.553 0-1 .448-1 1v2c0 .552.447 1 1 1s1-.448 1-1v-2C28 50.448 27.553 50 27 50zM22 50c-.553 0-1 .448-1 1v2c0 .552.447 1 1 1s1-.448 1-1v-2C23 50.448 22.553 50 22 50zM17 50c-.553 0-1 .448-1 1v2c0 .552.447 1 1 1s1-.448 1-1v-2C18 50.448 17.553 50 17 50z"/><path fill="#8d6c9f" d="M58,44h-2v-1.042C56,40.225,53.775,38,51.042,38H13c-2.757,0-5,2.243-5,5v1H6c-2.42,0-6,1.271-6,4 s3.58,4,6,4h2v1.042C8,55.775,10.225,58,12.958,58h38.084C53.775,58,56,55.775,56,53.042V52h2c2.42,0,6-1.271,6-4S60.42,44,58,44z M6,50c-1.812,0-4-0.892-4-2s2.188-2,4-2h2v4H6z M54,53.042C54,54.673,52.673,56,51.042,56H12.958C11.327,56,10,54.673,10,53.042 V51v-6v-2c0-1.654,1.346-3,3-3h38.042C52.673,40,54,41.327,54,42.958V45v6V53.042z M58,50h-2v-4h2c1.812,0,4,0.892,4,2 S59.812,50,58,50z"/></g></svg>