<svg xmlns="http://www.w3.org/2000/svg"  viewBox="0 0 64 64" width="128px" height="128px"><path fill="#f283a5" d="M60,32c0,15.464-12.536,28-28,28c-7.835,0-14.918-3.218-20-8.404C15,48,32,32,32,32s0-22,0-28 C47.464,4,60,16.536,60,32z"/><path fill="#f9dd8f" d="M61,32c0,15.99-13.01,29-29,29c-8.06,0-15.83-3.4-21.3-9.32l1.47-1.36l1.83-1.7 c4.63,5.01,11.19,7.88,18,7.88c13.51,0,24.5-10.99,24.5-24.5S45.51,7.5,32,7.5c-0.29,0-0.59,0-0.88,0.02L31,4.02l-0.03-1 C31.32,3.01,31.65,3,32,3C47.99,3,61,16.01,61,32z"/><path fill="#8d6c9f" d="M32,8.527V8.525c0-0.562,0.464-1.027,1.026-1.004c7.516,0.311,14.167,4.025,18.44,9.63 c0.332,0.436,0.232,1.066-0.205,1.396l-0.001,0.001c-0.445,0.337-1.068,0.235-1.407-0.209c-3.915-5.134-10.001-8.525-16.879-8.818 C32.433,9.498,32,9.069,32,8.527z"/><path fill="#8d6c9f" d="M51.94,21.6c-0.23-0.43-0.12-0.97,0.28-1.27c0.18-0.14,0.4-0.2,0.61-0.2c0.35,0,0.7,0.18,0.87,0.51 c0.411,0.772,0.78,1.569,1.105,2.389c0.206,0.522-0.082,1.112-0.613,1.295l-0.017,0.006c-0.514,0.178-1.061-0.094-1.26-0.6 C52.63,23.002,52.3,22.291,51.94,21.6z"/><path fill="#8d6c9f" d="M53.71,40.835L53.71,40.835c0.537,0.198,0.81,0.813,0.572,1.334C50.417,50.614,41.886,56.5,32,56.5 c-6.47,0-12.71-2.59-17.29-7.14c-0.4-0.4-0.37-1.05,0.04-1.44c0.19-0.18,0.43-0.26,0.67-0.26c0.26,0,0.53,0.1,0.73,0.3 c4.2,4.17,9.92,6.54,15.85,6.54c9.068,0,16.898-5.388,20.456-13.129C52.676,40.892,53.216,40.652,53.71,40.835z"/><path fill="#8d6c9f" d="M56.5,32c0,2.175-0.284,4.284-0.814,6.291c-0.148,0.56-0.759,0.86-1.303,0.662l-0.015-0.005 c-0.49-0.179-0.747-0.702-0.614-1.206C54.241,35.907,54.5,33.987,54.5,32c0-1.56-0.16-3.09-0.46-4.57 c-0.11-0.5,0.16-0.99,0.64-1.16c0.11-0.04,0.22-0.05,0.33-0.05c0.45,0,0.87,0.3,0.97,0.77C56.32,28.6,56.5,30.29,56.5,32z"/><path fill="#8d6c9f" d="M61,32c0,15.99-13.01,29-29,29c-8.06,0-15.83-3.4-21.3-9.32l1.47-1.36C17.27,55.84,24.49,59,32,59 c14.89,0,27-12.11,27-27S46.89,5,32,5c-0.32,0-0.64,0.01-0.96,0.02l-0.08-2h0.01C31.32,3.01,31.65,3,32,3C47.99,3,61,16.01,61,32z"/><path fill="#8d6c9f" d="M8.692,50.253c-0.306,0-0.608-0.14-0.805-0.404c-0.328-0.444-0.235-1.07,0.208-1.399l1.606-1.191 c0.442-0.329,1.069-0.237,1.399,0.208c0.328,0.444,0.235,1.07-0.208,1.399l-1.606,1.191C9.108,50.189,8.899,50.253,8.692,50.253z"/><path fill="#8d6c9f" d="M6.078,45.996c-0.366,0-0.719-0.202-0.895-0.551c-0.248-0.494-0.049-1.095,0.444-1.342 l1.787-0.897c0.497-0.248,1.096-0.048,1.343,0.445c0.248,0.494,0.049,1.095-0.444,1.342l-1.787,0.897 C6.382,45.961,6.229,45.996,6.078,45.996z"/><path fill="#8d6c9f" d="M4.226,41.355c-0.431,0-0.827-0.28-0.958-0.712c-0.158-0.529,0.142-1.087,0.67-1.246l1.915-0.576 c0.531-0.161,1.086,0.141,1.246,0.669c0.158,0.529-0.142,1.087-0.67,1.246l-1.915,0.576C4.418,41.341,4.32,41.355,4.226,41.355z"/><path fill="#8d6c9f" d="M3.212,36.461c-0.5,0-0.932-0.374-0.992-0.882c-0.065-0.548,0.326-1.046,0.875-1.111l1.985-0.236 c0.554-0.06,1.046,0.327,1.111,0.875s-0.326,1.046-0.875,1.111l-1.985,0.236C3.291,36.459,3.251,36.461,3.212,36.461z"/><path fill="#8d6c9f" d="M5.038,31.574c-0.018,0-0.035,0-0.053-0.001l-1.997-0.104c-0.552-0.029-0.976-0.499-0.947-1.051 c0.029-0.551,0.498-0.975,1.051-0.946l1.997,0.104c0.552,0.029,0.976,0.499,0.947,1.051C6.008,31.16,5.566,31.574,5.038,31.574z"/><path fill="#8d6c9f" d="M5.686,26.967c-0.074,0-0.148-0.008-0.224-0.025l-1.949-0.445 c-0.538-0.123-0.875-0.659-0.752-1.198c0.123-0.539,0.657-0.875,1.197-0.752l1.949,0.445c0.538,0.123,0.875,0.659,0.752,1.198 C6.554,26.653,6.142,26.967,5.686,26.967z"/><path fill="#8d6c9f" d="M7.105,22.54c-0.13,0-0.261-0.025-0.388-0.079l-1.844-0.775c-0.509-0.214-0.748-0.8-0.534-1.31 c0.215-0.51,0.801-0.748,1.31-0.534l1.844,0.775c0.509,0.214,0.748,0.8,0.534,1.31C7.866,22.31,7.495,22.54,7.105,22.54z"/><path fill="#8d6c9f" d="M9.275,18.427c-0.186,0-0.372-0.051-0.54-0.159l-1.683-1.082c-0.464-0.299-0.599-0.917-0.3-1.382 c0.298-0.465,0.916-0.599,1.382-0.301l1.683,1.082c0.464,0.299,0.599,0.917,0.3,1.382C9.927,18.265,9.604,18.427,9.275,18.427z"/><path fill="#8d6c9f" d="M12.114,14.74c-0.242,0-0.484-0.087-0.677-0.264l-1.473-1.353 c-0.406-0.374-0.434-1.006-0.06-1.413c0.375-0.406,1.007-0.433,1.413-0.06l1.473,1.353c0.406,0.374,0.434,1.006,0.06,1.413 C12.653,14.631,12.384,14.74,12.114,14.74z"/><path fill="#8d6c9f" d="M15.548,11.6c-0.3,0-0.597-0.134-0.793-0.39l-1.22-1.584c-0.337-0.438-0.256-1.065,0.182-1.402 c0.438-0.336,1.066-0.255,1.402,0.183l1.22,1.584c0.337,0.438,0.256,1.065-0.182,1.402C15.976,11.532,15.761,11.6,15.548,11.6z"/><path fill="#8d6c9f" d="M19.462,9.087c-0.359,0-0.707-0.194-0.886-0.535l-0.931-1.771 c-0.258-0.489-0.069-1.094,0.42-1.351c0.489-0.258,1.093-0.068,1.35,0.42l0.931,1.771c0.258,0.489,0.069,1.094-0.42,1.351 C19.777,9.05,19.618,9.087,19.462,9.087z"/><path fill="#8d6c9f" d="M23.75,7.291c-0.423,0-0.816-0.271-0.952-0.695l-0.61-1.904c-0.169-0.526,0.121-1.089,0.646-1.257 c0.529-0.17,1.09,0.122,1.258,0.647l0.61,1.904c0.169,0.526-0.121,1.089-0.646,1.257C23.954,7.275,23.851,7.291,23.75,7.291z"/><path fill="#8d6c9f" d="M28.283,6.26c-0.492,0-0.921-0.363-0.989-0.864l-0.272-1.981 c-0.075-0.547,0.307-1.052,0.854-1.127c0.544-0.079,1.051,0.308,1.126,0.854l0.272,1.981c0.075,0.547-0.307,1.052-0.854,1.127 C28.374,6.257,28.328,6.26,28.283,6.26z"/><g><rect width="2" height="56" x="31" y="4" fill="#8d6c9f"/></g><g><circle cx="41" cy="22" r="5" fill="#fff8ee"/><path fill="#8d6c9f" d="M41,28c-3.309,0-6-2.691-6-6s2.691-6,6-6s6,2.691,6,6S44.309,28,41,28z M41,18c-2.206,0-4,1.794-4,4 s1.794,4,4,4s4-1.794,4-4S43.206,18,41,18z"/></g><g><circle cx="40.5" cy="42.5" r="4.5" fill="#fff8ee"/><path fill="#8d6c9f" d="M40.5,48c-3.032,0-5.5-2.467-5.5-5.5s2.468-5.5,5.5-5.5s5.5,2.467,5.5,5.5S43.532,48,40.5,48z M40.5,39c-1.93,0-3.5,1.57-3.5,3.5s1.57,3.5,3.5,3.5s3.5-1.57,3.5-3.5S42.43,39,40.5,39z"/></g><g><rect width="56" height="2" x="4" y="31" fill="#8d6c9f" transform="rotate(-45.001 32 32)"/></g><g><rect width="2" height="28" x="40.9" y="27.9" fill="#8d6c9f" transform="rotate(-45.001 41.9 41.9)"/></g><g><rect width="28" height="2" x="32" y="31" fill="#8d6c9f"/></g><g><circle cx="26" cy="46" r="3" fill="#fff8ee"/></g><g><path fill="#8d6c9f" d="M26,50c-2.206,0-4-1.794-4-4s1.794-4,4-4s4,1.794,4,4S28.206,50,26,50z M26,44c-1.103,0-2,0.897-2,2 s0.897,2,2,2s2-0.897,2-2S27.103,44,26,44z"/></g></svg>