<svg xmlns="http://www.w3.org/2000/svg"  viewBox="0 0 64 64" width="128px" height="128px"><path fill="#cda1a7" d="M19.077 28.769A12.923 12.923 0 1 0 19.077 54.615A12.923 12.923 0 1 0 19.077 28.769Z"/><path fill="#72caaf" d="M44.923 28.769A12.923 12.923 0 1 0 44.923 54.615A12.923 12.923 0 1 0 44.923 28.769Z"/><path fill="#fff8ee" d="M31.985 19.459000000000003A15.424 15.424 0 1 0 31.985 50.307A15.424 15.424 0 1 0 31.985 19.459000000000003Z"/><path fill="#f9dd8f" d="M32,61.077c12.326,0,28-8.615,28-18.308c0-2.082-1.688-3.231-3.769-3.231 c-1.058,0-2.008,0.375-2.692,1.077c-4.356,5.863-12.6,9.692-21.538,9.692s-17.183-3.829-21.538-9.692 c-0.685-0.702-1.634-1.077-2.692-1.077C5.688,39.538,4,40.688,4,42.769C4,52.462,19.674,61.077,32,61.077z"/><path fill="#efc88e" d="M53.229,46.87C49.187,51.904,39.663,56,32,56c-7.697,0-16.982-3.961-21.138-9.018 c-1.573-1.912-4.261-2.345-6.339-1.153C7.321,54.203,20.991,61.077,32,61.077c11.093,0,24.892-6.979,27.542-15.44 C57.453,44.478,54.776,44.944,53.229,46.87z"/><path fill="#c4939c" d="M47,28c-1.106-1.957-2-3-2-3l-4-4l-3-2l-6-2l-5,2l-4,2l-2,2l-2,3c0,0-2.233,4-2.233,8 c0-5,0.233-5,2.233-5s3,1.683,3,3c0,2,0,5,0,5c0,1.657,1.343,3,3,3s3-1.343,3-3c0,0,0-4.125,0-5c0-8,10-8,10,0v8 c0,1.105,0.895,2,2,2s2-0.895,2-2c0,0,0-4,0-6c0-4,5-4,5,0C48,34,48.106,29.957,47,28z"/><path fill="#f283a5" d="M32 10.077A5 5 0 1 0 32 20.076999999999998A5 5 0 1 0 32 10.077Z"/><g><path fill="#8d6c9f" d="M37,36c0,0.552,0.448,1,1,1s1-0.448,1-1v-4c0-0.344-0.017-0.675-0.049-0.993 c-0.055-0.549-0.536-0.947-1.096-0.895c-0.549,0.056-0.95,0.546-0.895,1.096C36.987,31.461,37,31.725,37,32V36z"/><path fill="#8d6c9f" d="M58.413,38.261c-1.361-5.473-5.648-9.85-10.79-10.974c-1.885-4.408-5.582-7.892-10.307-9.437 C37.751,17.02,38,16.078,38,15.077c0-2.964-2.161-5.425-4.99-5.908C33.006,9.081,33,8.994,33,8.905 c0-2.219,1.434-4.403,3.336-5.081c0.52-0.186,0.792-0.757,0.606-1.278c-0.186-0.521-0.755-0.792-1.278-0.606 C32.961,2.903,31,5.833,31,8.905c0,0.088,0.007,0.174,0.01,0.261C28.172,9.64,26,12.106,26,15.077c0,1.002,0.25,1.945,0.686,2.776 c-4.722,1.546-8.423,5.033-10.309,9.441c-4.894,1.078-9.139,5.203-10.653,10.428c-0.049,0.169-0.037,0.336-0.001,0.496 C4.041,38.769,3,40.423,3,42.769C3,53.126,18.946,62,32,62s29-8.874,29-19.231C61,40.486,60.015,38.857,58.413,38.261z M32,11.077 c2.206,0,4,1.794,4,4s-1.794,4-4,4s-4-1.794-4-4S29.794,11.077,32,11.077z M15.582,29.587C15.205,31,15,32.479,15,34 c0,3.584,1.103,7.012,3.188,9.913c0.195,0.271,0.502,0.416,0.813,0.416c0.202,0,0.406-0.061,0.583-0.188 c0.448-0.323,0.55-0.947,0.228-1.396C17.972,40.187,17,37.163,17,34c0-1.365,0.189-2.691,0.533-3.958 C19.682,30.251,21,31.666,21,33v4c0,2.206,1.794,4,4,4s4-1.794,4-4v-5c0-2.437,1.071-4.238,2.864-4.82 c1.551-0.503,3.188,0.045,4.168,1.397c0.325,0.448,0.95,0.546,1.396,0.223c0.447-0.324,0.547-0.95,0.223-1.396 c-1.477-2.036-4.051-2.89-6.405-2.126C29.194,25.943,27,28.059,27,32v5c0,1.103-0.897,2-2,2s-2-0.897-2-2v-4 c0-2.131-1.804-4.407-4.792-4.899c1.753-4.113,5.298-7.315,9.804-8.554c1.061,0.948,2.456,1.53,3.988,1.53 c1.531,0,2.926-0.581,3.987-1.529c5.284,1.45,9.249,5.591,10.55,10.742C46.047,30.102,45.524,30,45,30c-1.988,0-4,1.374-4,4v6 c0,0.551-0.449,1-1,1s-1-0.449-1-1c0-0.552-0.448-1-1-1s-1,0.448-1,1c0,1.654,1.346,3,3,3s3-1.346,3-3v-6c0-1.476,1.077-2,2-2 c0.533,0,1.042,0.181,1.398,0.498C46.797,32.853,47,33.358,47,34c0,3.163-0.972,6.187-2.812,8.745 c-0.322,0.449-0.22,1.073,0.228,1.396c0.177,0.127,0.381,0.188,0.583,0.188c0.311,0,0.618-0.145,0.813-0.416 C47.897,41.012,49,37.584,49,34c0-1.518-0.202-2.993-0.576-4.402c3.593,1.271,6.629,4.512,7.85,8.424 c-0.974,0.067-2.089,0.391-3.538,1.998C48.231,46.082,40.092,50,32,50c-8.183,0-15.733-3.587-20.197-9.596 c-0.029-0.04-0.061-0.076-0.096-0.111c-0.914-0.914-2.034-2.02-3.987-2.245C8.954,34.066,11.983,30.851,15.582,29.587z M32,60 C20.099,60,5,51.887,5,42.769C5,41.735,5.26,40,7,40c1.557,0,2.312,0.727,3.242,1.656C15.087,48.134,23.214,52,32,52 c8.703,0,17.473-4.235,22.28-10.714C55.444,40,56.03,40,57,40c1.74,0,2,1.735,2,2.769C59,51.887,43.901,60,32,60z"/><path fill="#8d6c9f" d="M19.846 16.077H22c.552 0 1-.448 1-1s-.448-1-1-1h-2.154c-.552 0-1 .448-1 1S19.294 16.077 19.846 16.077zM20.933 10.02l1.865 1.077c.157.091.33.134.499.134.346 0 .682-.179.867-.5.276-.478.112-1.09-.366-1.366l-1.865-1.077c-.479-.277-1.09-.113-1.366.366C20.291 9.132 20.455 9.744 20.933 10.02zM25.98 7.183c.186.321.521.5.867.5.169 0 .342-.043.499-.134.479-.276.642-.888.366-1.366l-1.077-1.865c-.276-.478-.889-.644-1.366-.366-.479.276-.642.888-.366 1.366L25.98 7.183z"/></g></svg>