<svg xmlns="http://www.w3.org/2000/svg"  viewBox="0 0 64 64" width="128px" height="128px"><path fill="#becde8" d="M6 9.58L6 19 25.037 16.735 25.037 10.735z"/><path fill="#c2cde7" d="M59,51H5v0c0,4,3,10,7,10h40C56,61,59,53.209,59,51L59,51z"/><path fill="#b5c4e0" d="M6.198,56c1.235,2.7,3.326,5,5.802,5h40c2.245,0,4.175-2.455,5.437-5H6.198z"/><path fill="#d2dff2" d="M25.037,16.735l3.63,4.31c0.889,1.053,2.256,1.574,3.62,1.38l17-2.44c0.994-0.14,1.73-0.996,1.72-2 v-8.52c0.011-1.001-0.72-1.855-1.71-2l-16.91-2.42c-1.35-0.196-2.707,0.309-3.6,1.34l-3.75,4.35"/><path fill="#ffd394" d="M17.037 9.735H21.037V17.735H17.037z"/><path fill="#f9e3ae" d="M51,47h-6c1.105,0,2-0.895,2-2c0-1.105-0.895-2-2-2h-3h-1c1.105,0,2-0.895,2-2c0-1.105-0.895-2-2-2 c0-1,0-0.895,0-2V21c0,1.105,0.895,2,2,2s2-0.895,2-2V5c0-1.105-0.895-2-2-2s-2,0.895-2,2c0-1.105-0.895-2-2-2s-2,0.895-2,2v32 c0,1.105,0,2,0,2H23c-1.105,0-2,0.895-2,2c0,1.105,0.895,2,2,2h-1h-5c-1.105,0-2,0.895-2,2c0,1.105,0.895,2,2,2h-6 c-1.105,0-2,0.895-2,2c0,1.105,0.895,2,2,2h40c1.105,0,2-0.895,2-2C53,47.895,52.105,47,51,47z"/><g><path fill="#8d6c9f" d="M53.816,50C53.928,49.686,54,49.352,54,49c0-1.654-1.346-3-3-3h-3.184 C47.928,45.686,48,45.352,48,45c0-1.654-1.346-3-3-3h-1.184C43.928,41.686,44,41.352,44,41c0-1.302-0.839-2.402-2-2.816V23.816 C42.314,23.928,42.648,24,43,24c1.491,0,2.722-1.097,2.952-2.524l3.485-0.5c1.487-0.215,2.586-1.497,2.57-3v-8.51 c0.016-1.503-1.083-2.785-2.57-3L46,5.975V5c0-1.654-1.346-3-3-3c-0.771,0-1.468,0.301-2,0.78C40.468,2.301,39.771,2,39,2 c-1.502,0-2.738,1.113-2.955,2.556l-3.508-0.5c-1.688-0.244-3.385,0.389-4.5,1.68l-3.43,4L6,8C5.448,8,5,8.448,5,9 c0,0.552,0.448,1,1,1l10.037,1.195v5.09L6,18c-0.552,0-1,0.448-1,1c0,0.552,0.448,1,1,1l18.597-2.265l3.31,3.92 c1.104,1.33,2.817,1.996,4.53,1.76L36,22.904V38H23c-1.654,0-3,1.346-3,3c0,0.352,0.072,0.686,0.184,1H17c-1.654,0-3,1.346-3,3 c0,0.352,0.072,0.686,0.184,1H11c-1.654,0-3,1.346-3,3c0,0.352,0.072,0.686,0.184,1H4v1c0,5.313,3.215,11,8,11h40 c4.785,0,8-5.688,8-11v-1H53.816z M50.037,17.995c0.005,0.502-0.363,0.93-0.86,1L46,19.451v-2.463l4.037-0.253V17.995z M50.037,14.735c0,0,0,0-0.06,0L46,14.984v-2.497l3.977,0.249h0.06V14.735z M49.177,8.475c0.497,0.07,0.865,0.498,0.86,1v1.26 L46,10.482V8.036L49.177,8.475z M20.037,16.035l-2,0.12v-4.84l2,0.12V16.035z M32.177,21.435c-1.032,0.153-2.07-0.24-2.74-1.04 v0.04l-3.63-4.3h-0.06c-0.096-0.088-0.204-0.162-0.32-0.22c-0.057-0.005-0.113-0.005-0.17,0c-0.064-0.07-0.138-0.131-0.22-0.18 c0,0,0,0-0.07,0l-2.93,0.18v-4.36l2.94,0.18c0,0,0,0,0.06,0c0.07,0.007,0.14,0.007,0.21,0c0.121-0.016,0.234-0.065,0.33-0.14 c0.057-0.035,0.111-0.075,0.16-0.12h0.05l3.76-4.34c0.671-0.772,1.688-1.148,2.7-1L36,6.654v3.201l-1.903-0.119 c-0.551-0.034-1.026,0.385-1.06,0.936c0,0.001,0,0.002,0,0.004v0.06c-0.001,0.53,0.411,0.968,0.94,1L36,11.862v3.747l-2.023,0.126 c-0.529,0.032-0.941,0.47-0.94,1v0.06c0.032,0.551,0.505,0.972,1.056,0.94c0.001,0,0.002,0,0.004,0L36,17.616v3.271L32.177,21.435z M10,49c0-0.552,0.449-1,1-1h6c0.552,0,1-0.447,1-1s-0.448-1-1-1c-0.551,0-1-0.448-1-1s0.449-1,1-1h6h0.083H27c0.552,0,1-0.447,1-1 s-0.448-1-1-1h-3.917H23c-0.551,0-1-0.448-1-1s0.449-1,1-1h13.922c0.152,0,0.293-0.04,0.422-0.101 c0.381-0.141,0.656-0.5,0.656-0.931V5c0-0.552,0.449-1,1-1s1,0.448,1,1v2.188V9c0,0.553,0.448,1,1,1s1-0.447,1-1V7.188V5 c0-0.552,0.449-1,1-1s1,0.448,1,1v16c0,0.552-0.449,1-1,1s-1-0.448-1-1v-2.063V13c0-0.553-0.448-1-1-1s-1,0.447-1,1v5.938V21 v17.906c0,0.017,0.009,0.03,0.009,0.047C40.009,38.97,40,38.983,40,39c0,0.553,0.448,1,1,1c0.551,0,1,0.448,1,1s-0.449,1-1,1h-2 c-0.552,0-1,0.447-1,1s0.448,1,1,1h2h4c0.551,0,1,0.448,1,1s-0.449,1-1,1c-0.552,0-1,0.447-1,1s0.448,1,1,1h6c0.551,0,1,0.448,1,1 s-0.449,1-1,1H11C10.449,50,10,49.552,10,49z M52,60H12c-2.972,0-5.604-3.636-5.959-8H11h40h6.959C57.604,56.364,54.972,60,52,60z"/><path fill="#8d6c9f" d="M34.938 42h-3.875c-.552 0-1 .447-1 1s.448 1 1 1h3.875c.552 0 1-.447 1-1S35.49 42 34.938 42zM12 54c-.552 0-1 .447-1 1v2c0 .553.448 1 1 1s1-.447 1-1v-2C13 54.447 12.552 54 12 54zM17 54c-.552 0-1 .447-1 1v2c0 .553.448 1 1 1s1-.447 1-1v-2C18 54.447 17.552 54 17 54zM22 54c-.552 0-1 .447-1 1v2c0 .553.448 1 1 1s1-.447 1-1v-2C23 54.447 22.552 54 22 54zM27 54c-.552 0-1 .447-1 1v2c0 .553.448 1 1 1s1-.447 1-1v-2C28 54.447 27.552 54 27 54zM32 54c-.552 0-1 .447-1 1v2c0 .553.448 1 1 1s1-.447 1-1v-2C33 54.447 32.552 54 32 54zM42 54c-.552 0-1 .447-1 1v2c0 .553.448 1 1 1s1-.447 1-1v-2C43 54.447 42.552 54 42 54zM51 57c0 .553.448 1 1 1s1-.447 1-1v-2c0-.553-.448-1-1-1s-1 .447-1 1V57zM47 54c-.552 0-1 .447-1 1v2c0 .553.448 1 1 1s1-.447 1-1v-2C48 54.447 47.552 54 47 54zM37 54c-.552 0-1 .447-1 1v2c0 .553.448 1 1 1s1-.447 1-1v-2C38 54.447 37.552 54 37 54z"/></g></svg>