<svg xmlns="http://www.w3.org/2000/svg"  viewBox="0 0 64 64" width="128px" height="128px"><path fill="#b0edcc" d="M30.576,19.624l3.231,1.838L35,23h8l-0.279-2.267l6.84-4.149l-0.519-0.855 c-2.864-4.722-9.014-6.228-13.736-3.363C32.605,14.004,30.956,16.718,30.576,19.624"/><path fill="#f283a5" d="M27 9A10 10 0 1 0 27 29A10 10 0 1 0 27 9Z"/><path fill="#ced9ed" d="M58.5 28h-53C4.119 28 3 26.881 3 25.5v0C3 24.119 4.119 23 5.5 23h53c1.381 0 2.5 1.119 2.5 2.5v0C61 26.881 59.881 28 58.5 28zM57 28c-.67 8.73-5.07 16.26-12 20.45V53H19v-4.55C12.07 44.26 7.67 36.73 7 28H57z"/><path fill="#b5c4e0" d="M56.372,32c0.591-1.281,1.045-2.615,1.313-4H6.315c0.268,1.385,0.722,2.719,1.313,4H56.372z"/><path fill="#5dbc9d" d="M22 23c0-3.875-6-12-16-12 0 7 4 12 4 12M42 22c0-3.875 6-11 16-11 0 7-4 12-4 12"/><g><path fill="#8d6c9f" d="M14 40c.553 0 1-.447 1-1v-2c0-.553-.447-1-1-1s-1 .447-1 1v2C13 39.553 13.447 40 14 40zM19 40c.553 0 1-.447 1-1v-2c0-.553-.447-1-1-1s-1 .447-1 1v2C18 39.553 18.447 40 19 40zM24 40c.553 0 1-.447 1-1v-2c0-.553-.447-1-1-1s-1 .447-1 1v2C23 39.553 23.447 40 24 40zM29 40c.553 0 1-.447 1-1v-2c0-.553-.447-1-1-1s-1 .447-1 1v2C28 39.553 28.447 40 29 40zM34 40c.553 0 1-.447 1-1v-2c0-.553-.447-1-1-1s-1 .447-1 1v2C33 39.553 33.447 40 34 40zM39 40c.553 0 1-.447 1-1v-2c0-.553-.447-1-1-1s-1 .447-1 1v2C38 39.553 38.447 40 39 40zM44 40c.553 0 1-.447 1-1v-2c0-.553-.447-1-1-1s-1 .447-1 1v2C43 39.553 43.447 40 44 40zM49 40c.553 0 1-.447 1-1v-2c0-.553-.447-1-1-1s-1 .447-1 1v2C48 39.553 48.447 40 49 40z"/><path fill="#8d6c9f" d="M58.5,22h-2.626C57.125,19.907,59,15.948,59,11c0-0.553-0.447-1-1-1 c-3.983,0-7.433,1.104-10.174,2.726c-3.545-3.178-8.741-3.721-12.875-1.305C32.947,9.318,30.127,8,27,8 c-3.977,0-7.608,2.149-9.551,5.553C14.541,11.488,10.629,10,6,10c-0.553,0-1,0.447-1,1c0,4.948,1.875,8.907,3.126,11H5.5 C3.57,22,2,23.57,2,25.5S3.57,29,5.5,29h0.531c0.318,8.297,4.556,15.943,11.494,20.6C17.822,49.8,18,50.116,18,50.446V52 c0,1.103,0.897,2,2,2h24c1.103,0,2-0.897,2-2v-1.553c0-0.331,0.178-0.647,0.476-0.848c6.937-4.658,11.176-12.303,11.493-20.6H58.5 c1.93,0,3.5-1.57,3.5-3.5S60.43,22,58.5,22z M53.491,22h-4.502c0.448-2.368,2.093-3.831,3.127-4.749 c0.232-0.206,0.435-0.387,0.592-0.544c0.391-0.391,0.391-1.023,0-1.414s-1.023-0.391-1.414,0c-0.134,0.134-0.308,0.286-0.505,0.462 c-1.208,1.072-3.343,3.001-3.807,6.245H43c0-2.885,4.75-9.51,13.97-9.975C56.673,17.033,54.299,20.838,53.491,22z M46.106,13.883 C42.871,16.337,41,19.5,41,22h-3.424C37.851,21.029,38,20.025,38,19c0-2.21-0.661-4.266-1.788-5.992 C39.403,11.28,43.299,11.636,46.106,13.883z M27,10c4.963,0,9,4.037,9,9c0,1.034-0.183,2.039-0.523,3H23 c0-2.186-1.434-4.88-3.954-7.164C20.593,11.887,23.638,10,27,10z M7.03,12.025C16.251,12.489,21,19.115,21,22h-3.106 c-0.464-3.244-2.599-5.174-3.807-6.245c-0.197-0.176-0.371-0.328-0.505-0.462c-0.391-0.391-1.023-0.391-1.414,0 s-0.391,1.023,0,1.414c0.157,0.157,0.359,0.338,0.592,0.544c1.034,0.918,2.679,2.381,3.127,4.749h-5.379 C9.7,20.844,7.326,17.053,7.03,12.025z M45.36,47.939c-0.852,0.571-1.36,1.51-1.36,2.508V52H20v-1.554 c0-0.997-0.508-1.935-1.359-2.507C12.256,43.654,8.347,36.629,8.031,29h47.938C55.653,36.629,51.744,43.654,45.36,47.939z M58.5,27 h-53C4.673,27,4,26.327,4,25.5S4.673,24,5.5,24h53c0.827,0,1.5,0.673,1.5,1.5S59.327,27,58.5,27z"/></g></svg>