<svg xmlns="http://www.w3.org/2000/svg"  viewBox="0 0 64 64" width="128px" height="128px"><path fill="#f9dd8f" d="M37.906,29.142l-6.364,6.364c-1.562,1.562-4.095,1.562-5.657,0L14.572,24.192	c-1.562-1.562-1.562-4.095,0-5.657l6.364-6.364c1.562-1.562,4.095-1.562,5.657,0l11.314,11.314	C39.468,25.047,39.468,27.58,37.906,29.142z"/><path fill="#efc88e" d="M32.595,33.784l-0.275,0.275c-1.44,1.44-3.774,1.44-5.214,0L16.079,23.031	c-1.44-1.44-1.44-3.774,0-5.214l0.275-0.275c1.44-1.44,3.774-1.44,5.214,0L32.595,28.57C34.035,30.01,34.035,32.344,32.595,33.784z"/><path fill="#8d6c9f" d="M28.713,37.678c-1.335,0-2.591-0.521-3.535-1.465L13.865,24.899c-1.95-1.949-1.95-5.122,0-7.071 l6.364-6.363c0.944-0.944,2.2-1.465,3.536-1.465c1.335,0,2.591,0.521,3.535,1.465l11.314,11.313c1.949,1.949,1.949,5.122,0,7.071 l-6.364,6.363C31.305,37.157,30.049,37.678,28.713,37.678z M23.764,12c-0.802,0-1.555,0.313-2.122,0.879l-6.364,6.363 c-0.567,0.567-0.879,1.32-0.879,2.122c0,0.801,0.312,1.555,0.879,2.121l11.313,11.313c1.134,1.134,3.109,1.132,4.243,0l6.364-6.363 c1.169-1.17,1.169-3.073,0-4.243L25.885,12.879C25.318,12.313,24.565,12,23.764,12z"/><path fill="#f9dd8f" d="M54.228,29.142l-6.364,6.364c-1.562,1.562-4.095,1.562-5.657,0L30.894,24.192	c-1.562-1.562-1.562-4.095,0-5.657l6.364-6.364c1.562-1.562,4.095-1.562,5.657,0l11.314,11.314	C55.791,25.047,55.791,27.58,54.228,29.142z"/><path fill="#efc88e" d="M49.14,34.1l-0.013,0.013c-1.409,1.409-3.694,1.409-5.104,0L32.469,22.559	c-1.409-1.409-1.409-3.694,0-5.104l0.013-0.013c1.409-1.409,3.694-1.409,5.104,0L49.14,28.997	C50.549,30.406,50.549,32.691,49.14,34.1z"/><path fill="#8d6c9f" d="M45.036,37.678c-1.336,0-2.591-0.521-3.536-1.465L30.187,24.899c-1.949-1.949-1.949-5.122,0-7.071 l6.364-6.363C37.495,10.521,38.75,10,40.086,10c1.335,0,2.591,0.521,3.535,1.465l11.314,11.313c1.949,1.949,1.949,5.122,0,7.071 l-6.364,6.363C47.627,37.157,46.372,37.678,45.036,37.678z M40.086,12c-0.802,0-1.555,0.313-2.122,0.879l-6.364,6.363 c-1.169,1.17-1.169,3.073,0,4.243l11.313,11.313c1.133,1.132,3.108,1.134,4.243,0l6.364-6.363c1.169-1.17,1.169-3.073,0-4.243 L42.208,12.879C41.641,12.313,40.888,12,40.086,12z"/><path fill="#f9dd8f" d="M36.665,35.21l6.209,6.209c1.549,1.549,4.06,1.549,5.609,0l11.362-11.362 c1.549-1.549,1.549-4.06,0-5.609l-6.209-6.209c-1.549-1.549-4.06-1.549-5.609,0L36.665,29.601 C35.116,31.15,35.116,33.661,36.665,35.21z"/><path fill="#8d6c9f" d="M45.678,43.579c-1.327,0-2.574-0.516-3.512-1.454l-6.208-6.208c-1.937-1.937-1.937-5.087,0-7.023 l11.361-11.361c0.938-0.938,2.185-1.455,3.512-1.455c1.326,0,2.573,0.517,3.511,1.455l6.209,6.209c1.936,1.937,1.936,5.086,0,7.022 L49.189,42.125C48.251,43.063,47.004,43.579,45.678,43.579z M50.831,18.077c-0.792,0-1.538,0.309-2.098,0.869L37.372,30.308 c-1.157,1.156-1.157,3.039,0,4.195l6.208,6.208c1.12,1.12,3.074,1.122,4.195,0L59.137,29.35c1.156-1.156,1.156-3.038,0-4.194 l-6.209-6.209C52.368,18.386,51.623,18.077,50.831,18.077z"/><path fill="#f9dd8f" d="M27.417,35.142l-6.364,6.364c-1.562,1.562-4.095,1.562-5.657,0L4.083,30.192 c-1.562-1.562-1.562-4.095,0-5.657l6.364-6.364c1.562-1.562,4.095-1.562,5.657,0l11.314,11.314 C28.979,31.047,28.979,33.58,27.417,35.142z"/><path fill="#8d6c9f" d="M18.225,43.678c-1.335,0-2.591-0.521-3.535-1.465L3.375,30.899c-1.949-1.949-1.949-5.122,0-7.071 l6.364-6.363c0.944-0.944,2.2-1.465,3.536-1.465c1.335,0,2.591,0.521,3.535,1.465l11.314,11.313c1.949,1.949,1.949,5.122,0,7.071 l-6.364,6.363C20.816,43.157,19.561,43.678,18.225,43.678z M13.275,18c-0.802,0-1.555,0.313-2.122,0.879L4.79,25.242 c-1.169,1.17-1.169,3.073,0,4.243l11.314,11.313c1.134,1.133,3.109,1.133,4.243,0l6.364-6.363c1.169-1.17,1.169-3.073,0-4.243 L15.396,18.879C14.83,18.313,14.077,18,13.275,18z"/><path fill="#f9dd8f" d="M43.667,35.142l-6.364,6.364c-1.562,1.562-4.095,1.562-5.657,0L20.333,30.192	c-1.562-1.562-1.562-4.095,0-5.657l6.364-6.364c1.562-1.562,4.095-1.562,5.657,0l11.314,11.314	C45.229,31.047,45.229,33.58,43.667,35.142z"/><path fill="#8d6c9f" d="M34.386,43.678c-1.335,0-2.591-0.521-3.535-1.465L19.537,30.899c-1.95-1.949-1.95-5.122,0-7.071 l6.364-6.363c0.944-0.944,2.2-1.465,3.536-1.465c1.335,0,2.591,0.521,3.535,1.465l11.314,11.313c1.949,1.949,1.949,5.122,0,7.071 l-6.364,6.363C36.977,43.157,35.722,43.678,34.386,43.678z M29.437,18c-0.802,0-1.555,0.313-2.122,0.879l-6.364,6.363 c-0.567,0.567-0.879,1.32-0.879,2.122c0,0.801,0.312,1.555,0.879,2.121l11.313,11.313c1.134,1.133,3.109,1.133,4.243,0l6.364-6.363 c1.169-1.17,1.169-3.073,0-4.243L31.558,18.879C30.991,18.313,30.238,18,29.437,18z"/><path fill="#f283a5" d="M53.748,53H10.252c-0.449,0-0.844-0.3-0.964-0.733l-4.437-16C4.675,35.63,5.154,35,5.815,35h52.37	c0.661,0,1.14,0.63,0.964,1.267l-4.437,16C54.592,52.7,54.197,53,53.748,53z"/><path fill="#ed7899" d="M51.392,48H12.608C11.168,48,10,49.168,10,50.608V54h44v-3.392C54,49.168,52.832,48,51.392,48z"/><path fill="#8d6c9f" d="M12,50c-0.552,0-1-0.447-1-1v-2c0-0.553,0.448-1,1-1s1,0.447,1,1v2C13,49.553,12.552,50,12,50z"/><path fill="#8d6c9f" d="M17,50c-0.552,0-1-0.447-1-1v-2c0-0.553,0.448-1,1-1s1,0.447,1,1v2C18,49.553,17.552,50,17,50z"/><path fill="#8d6c9f" d="M22,50c-0.552,0-1-0.447-1-1v-2c0-0.553,0.448-1,1-1s1,0.447,1,1v2C23,49.553,22.552,50,22,50z"/><path fill="#8d6c9f" d="M27,50c-0.552,0-1-0.447-1-1v-2c0-0.553,0.448-1,1-1s1,0.447,1,1v2C28,49.553,27.552,50,27,50z"/><path fill="#8d6c9f" d="M32,50c-0.552,0-1-0.447-1-1v-2c0-0.553,0.448-1,1-1s1,0.447,1,1v2C33,49.553,32.552,50,32,50z"/><path fill="#8d6c9f" d="M37,50c-0.552,0-1-0.447-1-1v-2c0-0.553,0.448-1,1-1s1,0.447,1,1v2C38,49.553,37.552,50,37,50z"/><path fill="#8d6c9f" d="M42,50c-0.552,0-1-0.447-1-1v-2c0-0.553,0.448-1,1-1s1,0.447,1,1v2C43,49.553,42.552,50,42,50z"/><path fill="#8d6c9f" d="M47,50c-0.552,0-1-0.447-1-1v-2c0-0.553,0.448-1,1-1s1,0.447,1,1v2C48,49.553,47.552,50,47,50z"/><path fill="#8d6c9f" d="M52,50c-0.552,0-1-0.447-1-1v-2c0-0.553,0.448-1,1-1s1,0.447,1,1v2C53,49.553,52.552,50,52,50z"/><g><path fill="#8d6c9f" d="M53.748,54H10.252c-0.895,0-1.688-0.603-1.927-1.465l-4.438-16 c-0.168-0.608-0.046-1.244,0.335-1.746C4.604,34.288,5.185,34,5.815,34h52.37c0.63,0,1.21,0.288,1.592,0.789 c0.381,0.502,0.504,1.138,0.335,1.746l-4.437,16C55.436,53.397,54.643,54,53.748,54z M5.815,36l4.438,16h43.496l4.437-16H5.815z"/></g><g><path fill="#8d6c9f" d="M11.75,29.807c-0.068,0-0.137-0.007-0.206-0.021c-2.194-0.46-2.837-1.912-2.991-3.05 c-0.074-0.548,0.311-1.051,0.858-1.125c0.539-0.073,1.05,0.31,1.125,0.857c0.088,0.656,0.363,1.139,1.418,1.36 c0.541,0.113,0.887,0.644,0.773,1.184C12.628,29.483,12.213,29.807,11.75,29.807z"/></g><g><path fill="#8d6c9f" d="M27.294,29.807c-0.076,0-0.152-0.009-0.229-0.026c-2.526-0.593-2.949-2.228-2.976-3.149 c-0.016-0.552,0.418-1.013,0.97-1.029c0.54-0.006,1.012,0.419,1.029,0.971c0.009,0.302,0.027,0.931,1.434,1.261 c0.538,0.126,0.871,0.664,0.745,1.202C28.159,29.496,27.748,29.807,27.294,29.807z"/></g><g><path fill="#8d6c9f" d="M36.907,31.221c-0.464,0-0.88-0.324-0.978-0.797c-0.178-0.853-0.587-1.267-1.416-1.427 c-0.542-0.104-0.897-0.629-0.792-1.171c0.104-0.543,0.629-0.899,1.171-0.792c1.619,0.313,2.654,1.344,2.995,2.983 c0.112,0.54-0.235,1.069-0.775,1.183C37.043,31.214,36.975,31.221,36.907,31.221z"/></g><g><path fill="#8d6c9f" d="M51.625,29.14c-0.457,0-0.87-0.315-0.975-0.779c-0.122-0.539,0.216-1.074,0.755-1.196 c1.115-0.252,1.353-0.841,1.438-1.383c0.085-0.546,0.601-0.916,1.142-0.834c0.546,0.086,0.919,0.598,0.833,1.143 c-0.174,1.113-0.831,2.541-2.973,3.025C51.772,29.132,51.698,29.14,51.625,29.14z"/></g></svg>