<svg xmlns="http://www.w3.org/2000/svg"  viewBox="0 0 64 64" width="128px" height="128px"><path fill="#7e808a" d="M28.941,22.5C28.941,26,25,29,15,29S1.059,24,1.059,22.5H1v20c0,2.761,6.268,5,14,5s14-2.239,14-5 v-20H28.941z"/><path fill="#8a8e99" d="M29,42.5V24.188C28.833,24.238,27,29,15,29c-3.309,0-5.941-0.36-8-1v18.6l0,0 c2.269,0.566,5.023,0.9,8,0.9C22.732,47.5,29,45.261,29,42.5z"/><path fill="#fff8ee" d="M15 17A14 6 0 1 0 15 29A14 6 0 1 0 15 17Z"/><path fill="#ed7899" d="M15 21A4.667 2 0 1 0 15 25A4.667 2 0 1 0 15 21Z"/><path fill="#efc88e" d="M28.798,22.417c0.018,0.423,0.003,0.852-0.083,1.279c-0.099,0.488,0.144,2.212,0.22,3.184 c0.079,1.017,0.081,2.038,0.074,3.058L63,30.5V21L28.798,22.417z"/><path fill="#f9e3ae" d="M28.934,22.88c0.079,1.017,0.081,2.1,0.074,3.12H63v-5l-34.108,1.412 C28.908,22.579,28.923,22.739,28.934,22.88z"/><path fill="#efc88e" d="M63 44.5L8 43.5 8 37.5 63 35"/><path fill="#f9e3ae" d="M8 40L63 40 63 35 8 37.5z"/><g><path fill="#8d6c9f" d="M25.388 25.905c-1.022.536-2.256.984-3.669 1.332-.537.132-.864.673-.732 1.21.112.456.521.761.97.761.079 0 .16-.009.24-.029 1.569-.386 2.956-.892 4.12-1.502.489-.257.678-.861.421-1.351S25.877 25.651 25.388 25.905zM9.333 23c0 1.97 2.851 3 5.667 3s5.667-1.03 5.667-3C20.667 19.061 9.333 19.061 9.333 23zM15 24c-2.31 0-3.562-.738-3.671-.969C11.438 22.738 12.69 22 15 22c2.231 0 3.476.688 3.656 1C18.476 23.312 17.231 24 15 24z"/><path fill="#8d6c9f" d="M62.964 34.001L30 35.2v-4.516L62.975 31.5c.009 0 .017 0 .025 0 .541 0 .986-.432.999-.976.014-.552-.423-1.011-.975-1.024L30 28.682v-5.59l26.906-.838c.552-.018.985-.479.968-1.031-.018-.551-.463-.958-1.031-.969l-27.371.853C27.788 18.098 22.133 16 15 16c-8.551 0-15 3.01-15 7v19c0 3.99 6.449 7 15 7 6.34 0 11.886-1.772 14.02-4.436l27.911.748c.009 0 .018 0 .027 0 .54 0 .984-.431.999-.974.015-.552-.42-1.011-.973-1.026L9 42.026v-4.063l54.036-1.965c.552-.02.983-.483.963-1.035C63.979 34.412 63.518 33.979 62.964 34.001zM7.964 36.001C7.426 36.021 7 36.462 7 37v6c0 .542.432.985.973 1l18.117.485C23.907 45.871 19.969 47 15 47c-7.661 0-13-2.635-13-5V26.583C4.544 28.657 9.298 30 15 30c1.056 0 2.109-.049 3.13-.146.55-.052.954-.54.901-1.09s-.534-.969-1.09-.9C16.983 27.954 15.993 28 15 28c-7.661 0-13-2.635-13-5s5.339-5 13-5 13 2.635 13 5v12.272L7.964 36.001zM63.031 43.501l-2.145-.067c-.548-.068-1.014.416-1.031.968-.018.552.416 1.014.968 1.03l2.145.067C62.979 45.5 62.99 45.5 63 45.5c.538 0 .982-.428.999-.969C64.017 43.979 63.583 43.518 63.031 43.501zM60.353 22.11c.014 0 .028 0 .042-.001l2.646-.11c.552-.022.98-.489.958-1.041s-.476-1.005-1.041-.957l-2.646.11c-.552.022-.98.489-.958 1.041C59.377 21.689 59.82 22.11 60.353 22.11z"/></g></svg>