<svg xmlns="http://www.w3.org/2000/svg"  viewBox="0 0 64 64" width="128px" height="128px"><path fill="#72caaf" d="M58.649,29.46l-0.96-0.253c-3.03-0.8-4.829-3.826-4.026-6.776l0.254-0.935 c1.235-4.542-3.532-8.429-7.921-6.458l-0.903,0.406c-2.851,1.28-6.23,0.085-7.567-2.676l-0.424-0.875 c-2.058-4.251-8.282-4.251-10.34,0l-0.424,0.875c-1.337,2.761-4.716,3.956-7.567,2.676l-0.903-0.406 c-4.389-1.971-9.156,1.916-7.921,6.458l0.254,0.935c0.802,2.95-0.996,5.977-4.026,6.776l-0.96,0.253 c-4.666,1.231-5.747,7.187-1.796,9.895l0.813,0.557h55.398l0.813-0.557C64.396,36.647,63.315,30.692,58.649,29.46z"/><path fill="#ed7899" d="M24.197,10.053c-4.272,0-7.736,3.529-7.736,7.883s3.463,7.883,7.736,7.883 s7.736-3.529,7.736-7.883S28.469,10.053,24.197,10.053z"/><path fill="#ed7899" d="M12.222,20.12c-4.272,0-7.736,3.529-7.736,7.883s3.463,7.883,7.736,7.883s7.736-3.529,7.736-7.883 S16.495,20.12,12.222,20.12z"/><path fill="#ed7899" d="M52.138,20.12c-4.272,0-7.736,3.529-7.736,7.883s3.463,7.883,7.736,7.883s7.736-3.529,7.736-7.883 S56.41,20.12,52.138,20.12z"/><path fill="#ed7899" d="M40.163,10.053c-4.272,0-7.736,3.529-7.736,7.883s3.463,7.883,7.736,7.883 s7.736-3.529,7.736-7.883S44.436,10.053,40.163,10.053z"/><path fill="#f9e3ae" d="M31.933,19.778c-17.085,0-30.935,14.423-30.935,32.215h61.87 C62.868,34.201,49.018,19.778,31.933,19.778z"/><rect width="59.874" height="5.034" x="1.996" y="46.96" fill="#efc88e"/><path fill="#986ca1" d="M28.66,11.261c-0.539-0.393-1.128-0.725-1.756-0.977C25.985,9.912,24.997,9.71,23.95,9.71 c-3.034,0-5.678,1.711-7.025,4.228c-0.309,0.584-0.559,1.218-0.719,1.883c-0.01,0-0.01,0-0.01,0 c-0.15,0.624-0.229,1.268-0.229,1.943c0,1.339,0.329,2.597,0.898,3.705c0.15,0.292,0.319,0.584,0.499,0.846 c0.399,0.584,0.868,1.118,1.397,1.56c0.04-0.02,0.09-0.05,0.13-0.06c0.639-0.322,1.297-0.614,1.966-0.886 c-0.649-0.383-1.207-0.896-1.657-1.5c-0.778-1.017-1.237-2.285-1.237-3.665c0-0.393,0.04-0.775,0.11-1.138 c0.12-0.685,0.369-1.319,0.699-1.893c1.038-1.802,2.974-3.01,5.179-3.01c0.728,0,1.427,0.131,2.066,0.372 c0.639,0.232,1.217,0.574,1.736,0.997c1.327,1.107,2.185,2.789,2.185,4.671c0,0.372-0.03,0.735-0.1,1.077 c-0.13,0.755-0.399,1.46-0.788,2.084c0.758-0.07,1.517-0.121,2.295-0.121c0.259-0.644,0.439-1.329,0.529-2.034 c0.04-0.332,0.06-0.664,0.06-1.007C31.933,15.096,30.646,12.721,28.66,11.261z"/><path fill="#986ca1" d="M17.653,22.164c-0.249-0.252-0.509-0.483-0.788-0.695c-1.347-1.057-3.044-1.691-4.89-1.691 c-0.309,0-0.609,0.02-0.908,0.05c-0.689,0.081-1.347,0.242-1.966,0.493c-2.994,1.158-5.109,4.087-5.109,7.51 c0,0.644,0.07,1.268,0.22,1.862c0.15,0.664,0.389,1.299,0.699,1.883c0.21,0.403,0.449,0.785,0.719,1.138 c0.409,0.554,0.898,1.047,1.447,1.47c0.369-0.554,0.758-1.097,1.178-1.631c-0.539-0.423-1.008-0.956-1.367-1.55 c-0.02-0.01-0.02-0.02-0.02-0.04c-0.349-0.564-0.609-1.188-0.748-1.862c-0.08-0.413-0.13-0.836-0.13-1.268 c0-2.467,1.477-4.601,3.582-5.537c0.599-0.262,1.257-0.433,1.946-0.483c0.15-0.01,0.299-0.02,0.459-0.02 c1.457,0,2.784,0.523,3.822,1.389c0.519,0.443,0.978,0.977,1.327,1.571c0.539-0.312,1.078-0.604,1.637-0.876 c0.04-0.02,0.09-0.05,0.13-0.06C18.551,23.211,18.132,22.657,17.653,22.164z"/><path fill="#986ca1" d="M44.975,23.815c0.339-0.604,0.758-1.158,1.237-1.651c0.249-0.252,0.509-0.483,0.788-0.695 c1.347-1.057,3.044-1.691,4.89-1.691c0.349,0,0.699,0.02,1.038,0.07c0.689,0.091,1.347,0.262,1.966,0.524 c2.924,1.188,4.98,4.077,4.98,7.46c0,0.624-0.07,1.238-0.21,1.822c-0.15,0.664-0.389,1.309-0.699,1.893 c-0.2,0.413-0.449,0.805-0.728,1.168c-0.409,0.554-0.898,1.047-1.447,1.47c-0.369-0.554-0.758-1.097-1.178-1.631 c0.539-0.423,1.008-0.956,1.367-1.55c0.02-0.02,0.04-0.05,0.05-0.081c0.349-0.574,0.589-1.208,0.728-1.883 c0.08-0.393,0.12-0.795,0.12-1.208c0-2.416-1.417-4.51-3.453-5.477c-0.599-0.282-1.247-0.463-1.936-0.534 c-0.19-0.02-0.399-0.03-0.599-0.03c-1.457,0-2.784,0.524-3.822,1.389c-0.519,0.443-0.978,0.977-1.327,1.571 c-0.539-0.312-1.078-0.604-1.637-0.876L44.975,23.815z"/><path fill="#986ca1" d="M47.68,15.872c-0.16-0.664-0.399-1.299-0.719-1.883c-1.337-2.547-3.992-4.279-7.045-4.279 c-0.998,0-1.966,0.191-2.844,0.534c-0.629,0.242-1.227,0.554-1.766,0.956c-2.046,1.45-3.373,3.846-3.373,6.564 c0,0.342,0.02,0.674,0.06,1.007c0.09,0.705,0.269,1.389,0.529,2.034c0.778,0,1.537,0.05,2.295,0.121 c-0.389-0.624-0.659-1.329-0.788-2.084c-0.07-0.342-0.1-0.705-0.1-1.077c0-1.923,0.898-3.644,2.285-4.742 c0.519-0.423,1.108-0.745,1.746-0.966c0.609-0.221,1.267-0.332,1.956-0.332c2.225,0,4.171,1.228,5.199,3.05 c0.329,0.574,0.569,1.218,0.689,1.903c0.07,0.352,0.1,0.715,0.1,1.087c0,1.379-0.459,2.648-1.237,3.665 c-0.449,0.604-1.008,1.117-1.657,1.5c0.669,0.272,1.327,0.564,1.966,0.886c0.04,0.01,0.09,0.04,0.13,0.06 c0.529-0.443,0.998-0.977,1.397-1.56c0.18-0.262,0.349-0.554,0.499-0.846c0.569-1.107,0.898-2.366,0.898-3.705 C47.899,17.11,47.819,16.476,47.68,15.872z"/><path fill="#986ca1" d="M18.391,14.583l-0.938-0.433c-0.17-0.081-0.349-0.151-0.529-0.211 c-0.659-0.242-1.317-0.352-1.966-0.352c-3.403,0-6.347,3.071-5.858,6.735c0.04,0.252,0.09,0.513,0.16,0.765l0.259,1.007 c0.02,0.07,0.03,0.131,0.05,0.201c0.599-0.262,1.257-0.433,1.946-0.483c-0.02-0.08-0.04-0.151-0.06-0.232l-0.269-1.007 c-0.06-0.252-0.11-0.503-0.12-0.745c-0.08-0.956,0.19-1.883,0.788-2.648c0.748-0.987,1.916-1.581,3.103-1.581 c0.419,0,0.828,0.07,1.237,0.222c0,0,0,0,0.01,0c0.14,0.04,0.279,0.101,0.409,0.161l0.938,0.433 c0.17,0.081,0.339,0.151,0.519,0.211c0.12-0.685,0.369-1.319,0.699-1.893C18.641,14.694,18.511,14.643,18.391,14.583z M49.047,13.586c-0.689,0-1.387,0.131-2.086,0.403c-0.14,0.04-0.269,0.101-0.409,0.161l-0.938,0.433 c-0.16,0.081-0.329,0.141-0.499,0.191c0.329,0.574,0.569,1.218,0.689,1.903c0.22-0.07,0.439-0.161,0.649-0.262l0.938-0.433 c0.1-0.04,0.19-0.081,0.289-0.111c0.449-0.181,0.908-0.272,1.367-0.272c1.188,0,2.355,0.594,3.103,1.581 c0.599,0.775,0.868,1.701,0.778,2.668c-0.01,0.242-0.05,0.483-0.11,0.725l-0.269,1.007c-0.02,0.081-0.04,0.161-0.06,0.242 c0.689,0.07,1.337,0.252,1.936,0.534c0.01-0.091,0.04-0.171,0.06-0.262l0.259-1.007c0.06-0.242,0.11-0.473,0.15-0.715 C55.413,16.687,52.47,13.586,49.047,13.586z M59.664,29.654c-0.01-0.01-0.01-0.01-0.02-0.01l-0.998-0.272 c-0.309-0.091-0.609-0.191-0.888-0.332c-0.14,0.674-0.379,1.309-0.728,1.883c0.349,0.151,0.718,0.292,1.098,0.393l0.838,0.232 l0.15,0.04c1.507,0.413,2.565,1.581,2.834,3.121c0.21,1.188-0.1,2.326-0.828,3.191c-0.22,0.272-0.479,0.513-0.778,0.725 l-0.838,0.594c0.269,0.644,0.519,1.299,0.738,1.963c0.13-0.101,0.269-0.211,0.409-0.312l0.848-0.604 c0.15-0.111,0.299-0.221,0.439-0.342C65.482,36.882,64.285,30.932,59.664,29.654z M37.79,11.714l-0.439-0.946 c-0.09-0.181-0.18-0.362-0.279-0.524c-1.128-1.933-3.094-2.899-5.069-2.899c-1.986,0-3.962,0.987-5.099,2.94 c-0.09,0.151-0.17,0.312-0.249,0.483l-0.439,0.946c-0.06,0.131-0.13,0.262-0.2,0.383c0.639,0.232,1.217,0.574,1.736,0.997 c0.1-0.171,0.19-0.342,0.269-0.524l0.439-0.936c0.06-0.131,0.13-0.252,0.2-0.372c0.699-1.198,1.926-1.903,3.343-1.903 c1.387,0,2.595,0.685,3.303,1.842c0.09,0.131,0.17,0.282,0.239,0.433l0.439,0.936c0.07,0.151,0.15,0.302,0.229,0.453 c0.519-0.423,1.108-0.745,1.746-0.966C37.9,11.945,37.85,11.835,37.79,11.714z M6.117,29.1 c-0.239,0.111-0.499,0.201-0.758,0.272l-0.998,0.272c-0.05,0.01-0.1,0.03-0.15,0.05c-4.471,1.339-5.638,7.108-2.245,10.138 c0.17,0.151,0.349,0.292,0.539,0.433l0.838,0.604c0.11,0.07,0.21,0.151,0.309,0.232c0.22-0.664,0.469-1.319,0.748-1.953 l-0.748-0.524c-0.339-0.242-0.629-0.523-0.858-0.836c-0.669-0.856-0.938-1.943-0.738-3.081C2.325,33.167,3.383,32,4.89,31.587 l0.02-0.01l0.968-0.262c0.339-0.091,0.669-0.211,0.988-0.352C6.516,30.399,6.257,29.775,6.117,29.1z"/><path fill="#986ca1" d="M6.985,44.965c-0.55,0-0.998,0.448-0.998,1.007v2.013c0,0.558,0.448,1.007,0.998,1.007 s0.998-0.448,0.998-1.007v-2.013C7.983,45.413,7.535,44.965,6.985,44.965z"/><path fill="#986ca1" d="M11.975,44.965c-0.55,0-0.998,0.448-0.998,1.007v2.013c0,0.558,0.448,1.007,0.998,1.007 c0.55,0,0.998-0.448,0.998-1.007v-2.013C12.973,45.413,12.524,44.965,11.975,44.965z"/><path fill="#986ca1" d="M16.964,44.965c-0.55,0-0.998,0.448-0.998,1.007v2.013c0,0.558,0.448,1.007,0.998,1.007 s0.998-0.448,0.998-1.007v-2.013C17.962,45.413,17.514,44.965,16.964,44.965z"/><path fill="#986ca1" d="M21.954,44.965c-0.55,0-0.998,0.448-0.998,1.007v2.013c0,0.558,0.448,1.007,0.998,1.007 c0.55,0,0.998-0.448,0.998-1.007v-2.013C22.952,45.413,22.503,44.965,21.954,44.965z"/><path fill="#986ca1" d="M26.943,44.965c-0.55,0-0.998,0.448-0.998,1.007v2.013c0,0.558,0.448,1.007,0.998,1.007 s0.998-0.448,0.998-1.007v-2.013C27.941,45.413,27.493,44.965,26.943,44.965z"/><path fill="#986ca1" d="M31.933,44.965c-0.55,0-0.998,0.448-0.998,1.007v2.013c0,0.558,0.448,1.007,0.998,1.007 c0.55,0,0.998-0.448,0.998-1.007v-2.013C32.931,45.413,32.482,44.965,31.933,44.965z"/><path fill="#986ca1" d="M36.922,44.965c-0.55,0-0.998,0.448-0.998,1.007v2.013c0,0.558,0.448,1.007,0.998,1.007 c0.55,0,0.998-0.448,0.998-1.007v-2.013C37.92,45.413,37.472,44.965,36.922,44.965z"/><path fill="#986ca1" d="M41.912,44.965c-0.55,0-0.998,0.448-0.998,1.007v2.013c0,0.558,0.448,1.007,0.998,1.007 s0.998-0.448,0.998-1.007v-2.013C42.91,45.413,42.461,44.965,41.912,44.965z"/><path fill="#986ca1" d="M46.901,44.965c-0.55,0-0.998,0.448-0.998,1.007v2.013c0,0.558,0.448,1.007,0.998,1.007 c0.55,0,0.998-0.448,0.998-1.007v-2.013C47.899,45.413,47.451,44.965,46.901,44.965z"/><path fill="#986ca1" d="M51.891,44.965c-0.55,0-0.998,0.448-0.998,1.007v2.013c0,0.558,0.448,1.007,0.998,1.007 c0.55,0,0.998-0.448,0.998-1.007v-2.013C52.889,45.413,52.44,44.965,51.891,44.965z"/><path fill="#986ca1" d="M56.88,44.965c-0.55,0-0.998,0.448-0.998,1.007v2.013c0,0.558,0.448,1.007,0.998,1.007 s0.998-0.448,0.998-1.007v-2.013C57.878,45.413,57.43,44.965,56.88,44.965z"/><g><path fill="#986ca1" d="M31.933,21c15.534,0,28.343,12.713,29.799,28.917C61.784,50.499,61.313,51,60.73,51H3.136 c-0.583,0-1.054-0.501-1.002-1.083C3.59,33.713,16.399,21,31.933,21 M31.933,19C15.348,19,1.717,32.461,0.15,49.682 C-0.011,51.457,1.353,53,3.131,53h57.604c1.778,0,3.142-1.543,2.981-3.318C62.149,32.461,48.517,19,31.933,19L31.933,19z"/></g></svg>