<svg width="24" height="25" viewBox="0 0 24 25" fill="none" xmlns="http://www.w3.org/2000/svg">
<path d="M21.4286 2.67857H18.8571V0.892874C18.8571 0.399745 18.4734 0 18 0C17.5266 0 17.1428 0.399745 17.1428 0.892874V2.67857H6.85712V0.892874C6.85712 0.399745 6.47337 0 6.00001 0C5.52666 0 5.14285 0.399745 5.14285 0.892874V2.67857H2.57143C1.15127 2.67857 0 3.87781 0 5.35714V22.3214C0 23.8008 1.15127 25 2.57143 25H21.4286C22.8487 25 24 23.8008 24 22.3214V5.35714C24 3.87781 22.8487 2.67857 21.4286 2.67857ZM22.2857 22.3214C22.2857 22.8146 21.9019 23.2143 21.4285 23.2143H2.57143C2.09802 23.2143 1.71427 22.8146 1.71427 22.3214V10.7143H22.2857V22.3214ZM22.2857 8.92858H1.71427V5.35714C1.71427 4.86401 2.09802 4.46427 2.57143 4.46427H5.14285V6.24996C5.14285 6.74309 5.52661 7.14284 6.00001 7.14284C6.47342 7.14284 6.85717 6.74309 6.85717 6.24996V4.46427H17.1429V6.24996C17.1429 6.74309 17.5266 7.14284 18 7.14284C18.4734 7.14284 18.8572 6.74309 18.8572 6.24996V4.46427H21.4286C21.902 4.46427 22.2858 4.86401 22.2858 5.35714V8.92858H22.2857Z" fill="black"/>
<path d="M6.85707 12.5H5.1428C4.6694 12.5 4.28564 12.8997 4.28564 13.3929C4.28564 13.886 4.6694 14.2857 5.1428 14.2857H6.85707C7.33048 14.2857 7.71423 13.886 7.71423 13.3929C7.71423 12.8997 7.33048 12.5 6.85707 12.5Z" fill="black"/>
<path d="M12.8571 12.5H11.1428C10.6694 12.5 10.2856 12.8997 10.2856 13.3929C10.2856 13.886 10.6694 14.2857 11.1428 14.2857H12.8571C13.3305 14.2857 13.7142 13.886 13.7142 13.3929C13.7142 12.8997 13.3305 12.5 12.8571 12.5Z" fill="black"/>
<path d="M18.8571 12.5H17.1428C16.6694 12.5 16.2856 12.8997 16.2856 13.3929C16.2856 13.886 16.6694 14.2857 17.1428 14.2857H18.8571C19.3305 14.2857 19.7142 13.886 19.7142 13.3929C19.7142 12.8997 19.3304 12.5 18.8571 12.5Z" fill="black"/>
<path d="M6.85707 16.0714H5.1428C4.6694 16.0714 4.28564 16.4712 4.28564 16.9643C4.28564 17.4574 4.6694 17.8572 5.1428 17.8572H6.85707C7.33048 17.8572 7.71423 17.4574 7.71423 16.9643C7.71423 16.4712 7.33048 16.0714 6.85707 16.0714Z" fill="black"/>
<path d="M12.8571 16.0714H11.1428C10.6694 16.0714 10.2856 16.4712 10.2856 16.9643C10.2856 17.4574 10.6694 17.8572 11.1428 17.8572H12.8571C13.3305 17.8572 13.7142 17.4574 13.7142 16.9643C13.7142 16.4712 13.3305 16.0714 12.8571 16.0714Z" fill="black"/>
<path d="M18.8571 16.0714H17.1428C16.6694 16.0714 16.2856 16.4712 16.2856 16.9643C16.2856 17.4574 16.6694 17.8572 17.1428 17.8572H18.8571C19.3305 17.8572 19.7142 17.4574 19.7142 16.9643C19.7142 16.4712 19.3304 16.0714 18.8571 16.0714Z" fill="black"/>
<path d="M6.85707 19.6429H5.1428C4.6694 19.6429 4.28564 20.0426 4.28564 20.5358C4.28564 21.0289 4.6694 21.4286 5.1428 21.4286H6.85707C7.33048 21.4286 7.71423 21.0288 7.71423 20.5357C7.71423 20.0426 7.33048 19.6429 6.85707 19.6429Z" fill="black"/>
<path d="M12.8571 19.6429H11.1428C10.6694 19.6429 10.2856 20.0426 10.2856 20.5358C10.2856 21.0289 10.6694 21.4286 11.1428 21.4286H12.8571C13.3305 21.4286 13.7142 21.0289 13.7142 20.5358C13.7142 20.0426 13.3305 19.6429 12.8571 19.6429Z" fill="black"/>
<path d="M18.8571 19.6429H17.1428C16.6694 19.6429 16.2856 20.0426 16.2856 20.5358C16.2856 21.0289 16.6694 21.4286 17.1428 21.4286H18.8571C19.3305 21.4286 19.7142 21.0289 19.7142 20.5358C19.7142 20.0426 19.3304 19.6429 18.8571 19.6429Z" fill="black"/>
</svg>
