<svg xmlns="http://www.w3.org/2000/svg" viewBox="0 0 463.18 114.63"><defs><style>.cls-1{font-size:101.37px;font-family:Fragille-Reguler, Reguler;}.cls-1,.cls-3{fill:#f33;}.cls-2{letter-spacing:-0.05em;}</style></defs><g id="Capa_2" data-name="Capa 2"><g id="Capa_1-2" data-name="Capa 1"><text class="cls-1" transform="translate(154.3 92.94)"><tspan class="cls-2">T</tspan><tspan x="59" y="0">astify</tspan></text><path class="cls-3" d="M68.36,15.57A40.42,40.42,0,1,0,108.78,56,40.47,40.47,0,0,0,68.36,15.57Zm0,75.5A35.09,35.09,0,1,1,103.45,56,35.12,35.12,0,0,1,68.36,91.07Z"/><path class="cls-3" d="M92.29,43a2.67,2.67,0,0,0-3.62-1.06l-.12.07a2.66,2.66,0,0,0-.94,3.54A21.88,21.88,0,1,1,71.82,34.35a2.66,2.66,0,0,0,3-2.08.58.58,0,0,0,0-.14,2.67,2.67,0,0,0-2.21-3.05,28,28,0,0,0-4.3-.34A27.24,27.24,0,1,0,92.29,43Z"/><path class="cls-3" d="M136.5,94.19l-8.65-70.46a37.34,37.34,0,0,0-10-21.16l-.23-.25a5.77,5.77,0,0,0-6.77-1.27,5.78,5.78,0,0,0-3.33,6l11,89.32q.06.42.15.84a9.09,9.09,0,0,0,8.85,7.12,8.48,8.48,0,0,0,1.11-.07,9.07,9.07,0,0,0,6.76-4.5c.14-.26.28-.52.4-.78s.22-.54.32-.82A9.08,9.08,0,0,0,136.5,94.19ZM112.83,6.43a.49.49,0,0,1,.31-.56.73.73,0,0,1,.26-.06.48.48,0,0,1,.37.18l.23.24a32.19,32.19,0,0,1,4.63,6.26,31.72,31.72,0,0,1,3.92,11.89l4.61,37.55-7.4.91ZM131,96.65a3.73,3.73,0,0,1-7.17-.9l-3.39-27.62,7.4-.9,3.4,27.61A3.8,3.8,0,0,1,131,96.65Z"/><path class="cls-3" d="M32.9,3a2.67,2.67,0,0,0-3,2.32L27.5,25.11a6.36,6.36,0,0,1-5.95,5.59l-1.77-.22L23,4.5a2.66,2.66,0,1,0-5.29-.65l-3.19,26-1.77-.22A6.35,6.35,0,0,1,8.3,22.75L10.73,3a2.67,2.67,0,0,0-5.3-.65L3,22.1A11.64,11.64,0,0,0,9.18,33.9L.1,92.3v0a9.29,9.29,0,0,0,8.06,10.57h0a9.28,9.28,0,0,0,10.38-8.38L24,35.72a11.65,11.65,0,0,0,8.84-10L35.22,6A2.67,2.67,0,0,0,32.9,3ZM13.27,94A3.93,3.93,0,0,1,8.86,97.6h0a4,4,0,0,1-3.43-4.49l9-57.92,2.1.26h0l2.1.26Z"/></g></g></svg>