<svg xmlns="http://www.w3.org/2000/svg" viewBox="0 0 308.88 224.47"><defs><style>.cls-1{font-size:101.37px;font-family:Fragille-Reguler, Reguler;}.cls-1,.cls-3{fill:#f33;}.cls-2{letter-spacing:-0.05em;}</style></defs><g id="Capa_2" data-name="Capa 2"><g id="Capa_1-2" data-name="Capa 1"><text class="cls-1" transform="translate(0 195.38)"><tspan class="cls-2">T</tspan><tspan x="59" y="0">astify</tspan></text><path class="cls-3" d="M158.17,15.57A40.42,40.42,0,1,0,198.59,56,40.47,40.47,0,0,0,158.17,15.57Zm0,75.5A35.09,35.09,0,1,1,193.26,56,35.12,35.12,0,0,1,158.17,91.07Z"/><path class="cls-3" d="M182.1,43a2.67,2.67,0,0,0-3.62-1.06l-.13.07a2.66,2.66,0,0,0-.93,3.54,21.88,21.88,0,1,1-15.79-11.15,2.66,2.66,0,0,0,3-2.08l0-.14a2.67,2.67,0,0,0-2.22-3.05,27.89,27.89,0,0,0-4.29-.34A27.24,27.24,0,1,0,182.1,43Z"/><path class="cls-3" d="M175.21,33.7a1.8,1.8,0,0,0-.4-.33,2.94,2.94,0,0,0-.46-.25,2.21,2.21,0,0,0-.5-.15,2.6,2.6,0,0,0-1,0,2.07,2.07,0,0,0-.5.15,2.55,2.55,0,0,0-.46.25,2.12,2.12,0,0,0-.41.33,3.19,3.19,0,0,0-.33.4,2.94,2.94,0,0,0-.25.46,3,3,0,0,0-.1.32,1.21,1.21,0,0,0,0,.18,3.05,3.05,0,0,0-.05.52,3.17,3.17,0,0,0,.05.53,4,4,0,0,0,.15.49,2.55,2.55,0,0,0,.25.46,2.69,2.69,0,0,0,.33.41,3.29,3.29,0,0,0,.41.33,2.55,2.55,0,0,0,.46.25,4.13,4.13,0,0,0,.5.15,2.73,2.73,0,0,0,1,0,2.88,2.88,0,0,0,.5-.15,3,3,0,0,0,.4-.21l.06,0a2.6,2.6,0,0,0,.4-.33,1.86,1.86,0,0,0,.33-.41,2.55,2.55,0,0,0,.25-.46,2.3,2.3,0,0,0,.15-.49,2.39,2.39,0,0,0,.06-.53A2.66,2.66,0,0,0,175.21,33.7Z"/><path class="cls-3" d="M226.31,94.19l-8.65-70.46a37.34,37.34,0,0,0-10-21.16l-.23-.25a5.77,5.77,0,0,0-6.77-1.27,5.78,5.78,0,0,0-3.33,6l11,89.32q.06.42.15.84a9.09,9.09,0,0,0,8.84,7.12,8.27,8.27,0,0,0,1.11-.07,9.07,9.07,0,0,0,6.77-4.5c.14-.26.28-.52.4-.78s.22-.54.32-.82A9.08,9.08,0,0,0,226.31,94.19ZM202.64,6.43a.49.49,0,0,1,.31-.56.69.69,0,0,1,.26-.06.5.5,0,0,1,.37.18l.23.24a32.19,32.19,0,0,1,4.63,6.26,31.72,31.72,0,0,1,3.92,11.89L217,61.93l-7.4.91Zm18.14,90.22a3.73,3.73,0,0,1-7.17-.9l-3.39-27.62,7.4-.9L221,94.84A3.68,3.68,0,0,1,220.78,96.65Z"/><path class="cls-3" d="M122.7,3a2.67,2.67,0,0,0-3,2.32l-2.42,19.76a6.36,6.36,0,0,1-6,5.59l-1.77-.22,3.19-26a2.66,2.66,0,1,0-5.29-.65l-3.19,26-1.77-.22a6.34,6.34,0,0,1-4.42-6.86L100.54,3a2.67,2.67,0,0,0-5.3-.65L92.82,22.1A11.64,11.64,0,0,0,99,33.9L89.91,92.3v0a9.29,9.29,0,0,0,8,10.57H98a9,9,0,0,0,1.16.07,9.28,9.28,0,0,0,9.22-8.45l5.37-58.8a11.68,11.68,0,0,0,8.84-10L125,6A2.67,2.67,0,0,0,122.7,3ZM103.08,94a3.94,3.94,0,0,1-4.42,3.56h0a3.94,3.94,0,0,1-3.43-4.49l9-57.92,2.1.26h0l2.1.26Z"/><path class="cls-3" d="M76.83,212.61a7.06,7.06,0,0,0-.72-1.72c-.44-.79-.79-1-2.1-1H71.52c-.67,0-.74.07-.74.75V216h2.89c1.67,0,1.79-.28,2.14-1.91h.7V219h-.72c-.31-1.63-.47-2-2.12-2H70.78v4.18c0,2,.23,2.12,2.35,2.3v.65H66.65v-.65c1.89-.14,2.1-.3,2.1-2.3v-9.23c0-2-.23-2.12-2.1-2.31V209H74c2.09,0,2.89,0,3.28,0,0,.84.12,2.47.24,3.59Z"/><path class="cls-3" d="M87.69,208.65a7.5,7.5,0,0,1,7.55,7.69c0,5-3.4,8.13-7.69,8.13a7.59,7.59,0,0,1-7.74-7.78A7.77,7.77,0,0,1,87.69,208.65Zm-.47.86c-2.61,0-5,2.2-5,6.55s2.37,7.53,5.68,7.53c2.82,0,4.94-2.1,4.94-6.6C92.86,212.1,90.28,209.51,87.22,209.51Z"/><path class="cls-3" d="M105.7,208.65a7.5,7.5,0,0,1,7.55,7.69c0,5-3.41,8.13-7.69,8.13a7.58,7.58,0,0,1-7.74-7.78A7.77,7.77,0,0,1,105.7,208.65Zm-.47.86c-2.61,0-5,2.2-5,6.55s2.38,7.53,5.69,7.53c2.82,0,4.94-2.1,4.94-6.6C110.87,212.1,108.28,209.51,105.23,209.51Z"/><path class="cls-3" d="M122,209c3.28,0,5.36.65,6.8,2a6.73,6.73,0,0,1,2,5,7.66,7.66,0,0,1-2.91,6.29c-1.77,1.33-4,1.84-6.9,1.84H115.5v-.65c2-.18,2.1-.35,2.1-2.26v-9.3c0-2-.28-2.09-2.1-2.28V209ZM119.63,221c0,1.74.74,2.23,2.49,2.23,4.19,0,6.34-2.86,6.34-6.94,0-2.54-.87-4.48-2.71-5.59a7.32,7.32,0,0,0-4-.94,3.25,3.25,0,0,0-1.84.33c-.21.14-.3.4-.3,1.31Z"/><path class="cls-3" d="M146.42,212.52c-.4-1.54-1-3.05-3.24-3.05a2.33,2.33,0,0,0-2.45,2.54c0,1.61,1,2.42,3,3.42,2.8,1.45,4,2.52,4,4.73,0,2.45-2.12,4.31-5.13,4.31a9.52,9.52,0,0,1-3.56-.77,30,30,0,0,1-.63-3.49l.72-.19c.46,1.56,1.49,3.59,3.91,3.59a2.56,2.56,0,0,0,2.71-2.68c0-1.79-1-2.51-3-3.63-2.45-1.33-3.82-2.45-3.82-4.62s1.72-4,4.8-4a14.45,14.45,0,0,1,3.08.45c.09.83.18,1.77.37,3.28Z"/><path class="cls-3" d="M161.79,220.42c-.14.61-.77,3-1,3.7H149.47v-.65c2.16-.16,2.33-.37,2.33-2.28V212c0-2.08-.26-2.2-2-2.36V209h7.13c2.19,0,3.1,0,3.38,0,0,.58.12,2.33.21,3.57l-.7.11a7.65,7.65,0,0,0-.7-1.77c-.37-.77-.91-.93-2.3-.93h-2.22c-.72,0-.77.07-.77.75v5.15h2.59c1.75,0,1.86-.35,2.14-1.94h.72v4.8h-.72c-.3-1.68-.49-1.91-2.16-1.91h-2.57v4.64c0,1.63.51,1.77,1.68,1.79h2.17c1.42,0,1.65-.21,2.16-.81a9.51,9.51,0,0,0,1.26-2.15Z"/><path class="cls-3" d="M177.24,224.31a8.46,8.46,0,0,1-.87-.05,4.11,4.11,0,0,1-3.63-2c-.86-1.19-1.7-2.66-2.45-3.84-.46-.75-.77-.89-1.95-.89h-.82v3.66c0,2,.26,2.1,2.12,2.28v.65h-6.22v-.65c1.93-.21,2.1-.3,2.1-2.28v-9.3c0-2-.26-2-2.1-2.26V209h5.94a6.62,6.62,0,0,1,3.73.79,3.5,3.5,0,0,1,1.58,3.08,4.31,4.31,0,0,1-3,4c.42.73,1.42,2.29,2.12,3.34a21.85,21.85,0,0,0,1.84,2.4,3.37,3.37,0,0,0,1.7,1.07Zm-8.6-7.57a3.74,3.74,0,0,0,2.56-.68,3.26,3.26,0,0,0,1.28-2.86,3.14,3.14,0,0,0-3.45-3.41,2.1,2.1,0,0,0-1.23.24c-.21.16-.28.39-.28,1v5.71Z"/><path class="cls-3" d="M192.08,209.63c-1.57.21-2,.42-2.8,2.52-.63,1.54-3.84,9.34-5,12.23h-.77c-1.37-3.75-3.37-9.2-4.7-12.65-.65-1.73-1-2-2.47-2.1V209h5.92v.65c-1.73.19-1.82.47-1.5,1.33.59,1.7,2.29,6.34,3.76,10.21,1.23-3,2.77-6.81,3.86-9.74.52-1.36.24-1.57-1.67-1.8V209h5.36Z"/><path class="cls-3" d="M193,224.12v-.65c1.91-.21,2.1-.3,2.1-2.28v-9.25c0-2-.19-2.1-2.1-2.31V209h6.25v.65c-1.94.21-2.13.3-2.13,2.31v9.25c0,2,.19,2.07,2.13,2.28v.65Z"/><path class="cls-3" d="M215.39,220.4a28.64,28.64,0,0,1-1.28,3.51,21.1,21.1,0,0,1-4.26.56c-5.57,0-8.41-3.7-8.41-7.78,0-4.75,3.61-8,8.83-8a23.4,23.4,0,0,1,4.4.54c.09,1.05.26,2.45.44,3.61l-.72.16c-.46-1.56-1-2.51-2.21-3a6.38,6.38,0,0,0-2.45-.45c-3.84,0-5.87,2.85-5.87,6.69,0,4.5,2.33,7.39,6.1,7.39,2.38,0,3.55-1.1,4.73-3.43Z"/><path class="cls-3" d="M229.72,220.42c-.14.61-.77,3-1,3.7H217.39v-.65c2.17-.16,2.33-.37,2.33-2.28V212c0-2.08-.25-2.2-2-2.36V209h7.13c2.19,0,3.1,0,3.38,0,0,.58.12,2.33.21,3.57l-.7.11a7.65,7.65,0,0,0-.7-1.77c-.37-.77-.91-.93-2.31-.93h-2.21c-.72,0-.77.07-.77.75v5.15h2.59c1.75,0,1.86-.35,2.14-1.94h.72v4.8h-.72c-.3-1.68-.49-1.91-2.17-1.91h-2.56v4.64c0,1.63.51,1.77,1.68,1.79h2.17c1.42,0,1.65-.21,2.16-.81a9.9,9.9,0,0,0,1.26-2.15Z"/></g></g></svg>