<?xml version="1.0" encoding="utf-8"?>
<!-- Generator: Adobe Illustrator 25.2.3, SVG Export Plug-In . SVG Version: 6.00 Build 0)  -->
<svg version="1.1" id="Capa_1" xmlns="http://www.w3.org/2000/svg" xmlns:xlink="http://www.w3.org/1999/xlink" x="0px" y="0px"
	 viewBox="0 0 463.2 114.6" style="enable-background:new 0 0 463.2 114.6;" xml:space="preserve">
<style type="text/css">
	.st0{enable-background:new    ;}
	.st1{fill:#FF3333;}
</style>
<g id="Capa_2_1_">
	<g id="Capa_1-2">
		<g class="st0">
			<path class="st1" d="M215.3,49.9c0,0-1,0-1.1,0c-1-9-2.8-25.7-17.2-25.7h-7.6c0,0,5.5,2.5,5.5,14.3V86c0,3.8,2,5.6,5.7,5.6h0.1
				v1.3h-29.5v-1.3h11.2c0,0-5.5-2.5-5.5-14.4V29.6c0-3-1.4-4.7-3.9-5.2c-12.7,1.3-14.5,16.8-15.5,25.4c-0.1,0-1.1,0-1.1,0V22h59
				V49.9z"/>
		</g>
		<g class="st0">
			<path class="st1" d="M264.2,92.9c-3.1,0-4.6,0-11.4,0h-2.6c-1.6,0-6.2-0.1-7-9.4c-2.4,4.3-6.3,9.4-13.8,9.4
				c-7.9,0-13.6-5.4-14.9-16c-2.4-19.1,18.2-28.3,28.5-9.5V48.9c0-6.3-0.9-10.1-6.5-10.1c-3.6,0-6.9,3-4.7,7.7
				c2.2,4.6-0.7,8.6-5.1,8.5c-6.4-0.2-7.5-8.9-2.4-13.5c3-2.7,7.5-4.1,13.1-4.1c11.8,0,22.3,2.9,22.3,17v31.6c0,3.8,2,5.5,4.5,5.5
				V92.9z M242.4,82.3c1.6-2.7,1.1-12.9-3.9-18.4C231,55.5,224,62,228.4,74.3C232.7,86.5,240.2,86.1,242.4,82.3z"/>
			<path class="st1" d="M286.7,92.9H286c-12.9,0-18.4-6.6-17.6-13.5c0.4-4.2,3-6.3,5.8-6.6l2.1,0.2c3.5,0.7,6.5,4.7,3.8,10.7
				c-1.8,4,1.2,7.2,5.8,7.9c0.1,0,0.1,0,0.1,0c4,0.5,7.7-0.5,8.1-6.6c0.3-6.7-6.8-9.8-13-13.2c-6.9-3.8-13-10.1-12.5-18.9
				c0.7-14.4,15.1-15.6,19.8-15.6c11.9,0,17.3,5.2,17,11.6c-0.6,10.2-15.4,7.7-11-3.4c1.5-4.1-1.9-7.1-6.7-7.1c-3.3,0-6,2.8-6.1,7.5
				c-0.2,6.9,7.9,10.3,14.1,13.6c8.7,4.6,13.5,9.5,12.5,18.8C306.5,91.5,293.2,92.9,286.7,92.9z"/>
			<path class="st1" d="M341.4,91.1v1.8h-10.7c-9.2,0-13.5-7.1-13.5-17.3V43.2c0-2.4-2.2-3.5-5-3.5v-1.3c8.8,0,14.9-4.9,19.6-15.7
				h2.1v15.7h5.1v1.3c-2.8,0-5.1,1.1-5.1,3.5v34.7C333.9,85,336.2,91.1,341.4,91.1z"/>
			<path class="st1" d="M359.3,39.6v0.1c1.6,0.4,5.4,2.2,5.4,12.4c0,18.8,0,15.2,0,34.1c0,3.8,2,5.5,4.5,5.5v1.3
				c-3.1,0-4.7,0-11.5,0h-14.2v-1.3h10.4c0,0-6,0-6-12.4V45.2c0-3.8-1.9-5.6-4.5-5.6v-1.3h25.6v1.3H359.3z M347.4,26.6
				c0-4.7,3.8-8.4,8.4-8.4c4.6,0,8.3,3.8,8.3,8.4c0,4.6-3.8,8.3-8.3,8.3C351.2,35,347.4,31.2,347.4,26.6z"/>
			<path class="st1" d="M400.6,25.6c2.2-4.7-0.3-7.5-3.2-7.5c-5.4-0.4-4.6,12.1-4.6,14.2v6h6.8v1.3c-4.3,0-6.8,1.1-6.8,3.5v27.7
				c0,1.7,0,3.3,0,4.4v10.9c0,3.8,2,5.5,4.5,5.5v1.3c-2.5,0-4.1,0-8.3,0h-17.8v-1.3h0.5h10.5c0,0-6.1,0-6.1-12.4v-0.1V39.6v3.5
				c0-2.4-2-3.5-4.5-3.5v-1.3h4.6v-1.1c0.2-14.9,7.4-20.5,18.5-20.5c5.4,0,9.5,0.5,13.4,4c5.1,4.6,4,13.3-2.4,13.4
				C401.3,34.1,398.3,30.2,400.6,25.6z"/>
			<path class="st1" d="M462.2,39.6c-5.8,1.9-13.1,16.6-18.3,30.9l-1.3,3.5l-6.6,17.1l-4.1,10.6c-2.1,5.7-5.5,11.3-12.3,11.3
				c-7.5,0-11.6-5.4-11.6-10.2c0-4.6,3-8.1,7.8-8.1c3.8,0,6.7,3.2,6.7,7c0,3.1-1.8,5.2-3,6.2c-1.7,1.4-2.3,3.9,0.5,3.9
				c5.2,0,8.4-4.8,10.4-10.2l3.3-8.9c-3.4-1.1-7.2-5.2-11.2-14.9l-13.2-32.5c-1.4-3.5-4.9-5.6-7.3-5.6v-1.3h28v1.3h-11.7
				c0,0,6.2,0.2,10.1,10.3l10.8,27.7l2.7-7.1c5.3-14.1,8.2-27.8,0.9-30.9c0-0.2,0-1.3,0-1.3h19.1C462.2,38.3,462.2,39.4,462.2,39.6z
				"/>
		</g>
		<path class="st1" d="M68.4,15.6C46,15.6,27.9,33.7,27.9,56S46,96.4,68.4,96.4c22.3,0,40.4-18.1,40.4-40.4
			C108.8,33.7,90.7,15.6,68.4,15.6z M67.9,91.1c-20.2,0-36.4-17.1-35-37.6C34.1,36.2,48.1,22.2,65.4,21C85.9,19.6,103,35.8,103,56
			c0,0,0,0,0,0C103,75.4,87.3,91.1,67.9,91.1z"/>
		<path class="st1" d="M92.3,43c-0.7-1.3-2.3-1.8-3.6-1.1L88.5,42c-1.2,0.7-1.6,2.3-0.9,3.5c5.7,10.6,1.8,23.9-8.8,29.7
			S54.9,77,49.1,66.4S47.3,42.5,58,36.7c4.2-2.3,9.1-3.1,13.9-2.4c1.4,0.2,2.7-0.7,3-2.1c0,0,0-0.1,0-0.1c0.2-1.5-0.8-2.8-2.2-3
			c-1.4-0.2-2.9-0.3-4.3-0.3c-15,0-27.2,12.2-27.2,27.3s12.2,27.2,27.3,27.2S95.6,71,95.6,55.9C95.6,51.4,94.4,47,92.3,43z"/>
		<path class="st1" d="M136.5,94.2l-8.7-70.5c-1-7.9-4.5-15.4-10-21.2l-0.2-0.2c-1.7-1.9-4.5-2.4-6.8-1.3c-2.3,1.1-3.7,3.5-3.3,6
			l11,89.3c0,0.3,0.1,0.6,0.2,0.8c0.9,4.2,4.6,7.1,8.8,7.1c0.4,0,0.7,0,1.1-0.1c2.8-0.4,5.3-2,6.8-4.5c0.1-0.3,0.3-0.5,0.4-0.8
			s0.2-0.5,0.3-0.8C136.5,96.9,136.7,95.5,136.5,94.2z M112.8,6.4c0-0.2,0.1-0.5,0.3-0.6c0.1,0,0.2-0.1,0.3-0.1
			c0.1,0,0.3,0.1,0.4,0.2l0.2,0.2c1.8,1.9,3.3,4,4.6,6.3c2.1,3.7,3.4,7.7,3.9,11.9l4.6,37.5l-7.4,0.9L112.8,6.4z M131,96.7
			c-0.8,1.9-2.9,2.9-4.8,2.1c-1.3-0.5-2.2-1.6-2.3-3l-3.4-27.6l7.4-0.9l3.4,27.6C131.3,95.5,131.2,96.1,131,96.7z"/>
		<path class="st1" d="M32.9,3c-1.5-0.2-2.8,0.8-3,2.3c0,0,0,0,0,0l-2.4,19.8c-0.4,3.1-2.9,5.4-6,5.6l-1.8-0.2l3.2-26
			c0.2-1.5-0.9-2.8-2.3-3c-1.5-0.2-2.8,0.9-3,2.3l-3.2,26l-1.8-0.2c-3-0.9-4.8-3.8-4.4-6.9L10.7,3c0.2-1.5-0.9-2.8-2.4-3
			C6.9-0.1,5.6,0.9,5.4,2.3L3,22.1c-0.6,4.8,1.9,9.6,6.2,11.8L0.1,92.3l0,0c-0.7,5.1,2.8,9.8,7.8,10.5c0.1,0,0.1,0,0.2,0l0,0
			c5.1,0.6,9.7-3,10.3-8.1c0-0.1,0-0.2,0-0.3L24,35.7c4.8-1.1,8.3-5.1,8.8-10L35.2,6C35.4,4.5,34.4,3.2,32.9,3C32.9,3,32.9,3,32.9,3
			z M13.3,94c-0.2,2.2-2.1,3.8-4.2,3.6c-0.1,0-0.1,0-0.2,0l0,0c-2.2-0.3-3.7-2.3-3.4-4.5l9-57.9l2.1,0.3l0,0l2.1,0.3L13.3,94z"/>
	</g>
</g>
</svg>
