<?xml version="1.0" encoding="utf-8"?>
<!-- Generator: Adobe Illustrator 25.2.3, SVG Export Plug-In . SVG Version: 6.00 Build 0)  -->
<svg version="1.1" id="Capa_1" xmlns="http://www.w3.org/2000/svg" xmlns:xlink="http://www.w3.org/1999/xlink" x="0px" y="0px"
	 viewBox="0 0 643.4 159.7" style="enable-background:new 0 0 643.4 159.7;" xml:space="preserve">
<style type="text/css">
	.st0{enable-background:new    ;}
	.st1{fill:#FFFFFF;}
</style>
<g id="Capa_2_1_">
	<g id="Capa_1-2">
		<g class="st0">
			<path class="st1" d="M292.2,68c0,0-1.4,0-1.6,0c-1.4-12.8-4-36.5-24.4-36.5h-10.8c0,0,7.8,3.6,7.8,20.2v67.5c0,5.3,2.9,7.9,8,7.9
				h0.1v1.9h-41.8v-1.9h15.8c0,0-7.8-3.6-7.8-20.4V39.3c0-4.3-2-6.6-5.5-7.3c-18,1.9-20.5,23.8-22,36c-0.1,0-1.6,0-1.6,0V28.5h83.6
				V68z"/>
		</g>
		<g class="st0">
			<path class="st1" d="M361.5,129c-4.5,0-6.5,0-16.1,0h-3.7c-2.3,0-8.8-0.1-9.9-13.4c-3.4,6-8.9,13.4-19.5,13.4
				c-11.2,0-19.2-7.6-21.1-22.7c-3.4-27,25.8-40.1,40.4-13.5V66.7c0-8.9-1.3-14.4-9.2-14.4c-5.2,0-9.8,4.3-6.6,10.9
				c3.2,6.5-1,12.2-7.2,12.1c-9-0.3-10.6-12.6-3.4-19.1c4.3-3.9,10.6-5.7,18.5-5.7c16.7,0,31.6,4.2,31.6,24.1v44.8
				c0,5.3,2.9,7.8,6.3,7.8V129z M330.6,113.9c2.3-3.9,1.6-18.2-5.5-26.1c-10.6-11.8-20.5-2.6-14.4,14.8
				C316.8,119.8,327.4,119.4,330.6,113.9z"/>
			<path class="st1" d="M393.3,129h-1c-18.2,0-26.1-9.3-25-19.1c0.6-5.9,4.3-8.9,8.2-9.3l3,0.3c5,1,9.2,6.6,5.3,15.2
				c-2.6,5.6,1.7,10.2,8.2,11.2c0.1,0,0.1,0,0.1,0c5.6,0.7,10.9-0.7,11.5-9.3c0.4-9.5-9.6-13.9-18.4-18.7
				c-9.8-5.3-18.4-14.4-17.7-26.7c1-20.4,21.4-22.1,28-22.1c16.8,0,24.6,7.3,24.1,16.4c-0.9,14.5-21.8,10.9-15.7-4.9
				c2.2-5.7-2.7-10.1-9.5-10.1c-4.7,0-8.5,4-8.6,10.6c-0.3,9.8,11.2,14.6,20,19.2c12.3,6.5,19.1,13.5,17.7,26.6
				C421.3,127,402.5,129,393.3,129z"/>
			<path class="st1" d="M470.9,126.4v2.6h-15.2c-13.1,0-19.1-10.1-19.1-24.6v-46c0-3.4-3.2-5-7-5v-1.9c12.5,0,21.1-6.9,27.7-22.3h3
				v22.3h7.2v1.9c-4,0-7.2,1.6-7.2,5v49.1C460.3,117.8,463.4,126.4,470.9,126.4z"/>
			<path class="st1" d="M496.2,53.5v0.1c2.3,0.6,7.6,3.2,7.6,17.5c0,26.6,0,21.5,0,48.2c0,5.3,2.9,7.8,6.3,7.8v1.9
				c-4.5,0-6.6,0-16.2,0h-20.1v-1.9h14.8c0,0-8.5,0-8.5-17.5V61.4c0-5.3-2.7-7.9-6.3-7.9v-1.9h36.3v1.9H496.2z M479.4,35.1
				c0-6.6,5.3-11.9,11.9-11.9c6.5,0,11.8,5.3,11.8,11.9c0,6.5-5.3,11.8-11.8,11.8C484.7,46.9,479.4,41.6,479.4,35.1z"/>
			<path class="st1" d="M554.8,33.7c3.2-6.6-0.4-10.6-4.6-10.6c-7.6-0.6-6.5,17.1-6.5,20.1v8.5h9.6v1.9c-6,0-9.6,1.6-9.6,5v39.2
				c0,2.4,0,4.7,0,6.2v15.5c0,5.3,2.9,7.8,6.3,7.8v1.9c-3.6,0-5.7,0-11.8,0H513v-1.9h0.7h14.9c0,0-8.6,0-8.6-17.5v-0.1v-56v5
				c0-3.4-2.9-5-6.3-5v-1.9h6.5V50c0.3-21.1,10.5-29,26.3-29c7.6,0,13.5,0.7,19,5.6c7.2,6.5,5.6,18.8-3.4,19
				C555.8,45.7,551.4,40.1,554.8,33.7z"/>
			<path class="st1" d="M641.9,53.5c-8.2,2.7-18.5,23.6-26,43.8l-1.9,5l-9.3,24.3l-5.7,15.1c-3,8-7.8,15.9-17.4,15.9
				c-10.6,0-16.4-7.6-16.4-14.5c0-6.5,4.3-11.5,11.1-11.5c5.3,0,9.5,4.6,9.5,9.9c0,4.5-2.6,7.3-4.3,8.8c-2.4,2-3.3,5.5,0.7,5.5
				c7.3,0,11.9-6.7,14.8-14.5l4.7-12.6c-4.9-1.6-10.2-7.3-15.8-21.1l-18.7-46.1c-2-5-6.9-7.9-10.3-7.9v-1.9h39.6v1.9H580
				c0,0,8.8,0.3,14.4,14.6l15.4,39.2l3.9-10.1c7.5-20,11.6-39.3,1.3-43.8c0-0.3,0-1.9,0-1.9h27C641.9,51.6,641.9,53.2,641.9,53.5z"
				/>
		</g>
		<path class="st1" d="M96.8,22c-31.6,0-57.3,25.6-57.3,57.3s25.6,57.3,57.3,57.3s57.3-25.6,57.3-57.3
			C154.1,47.7,128.5,22.1,96.8,22z M96.8,129.1c-27.4,0-49.7-22.3-49.7-49.7s22.3-49.7,49.7-49.7s49.7,22.3,49.7,49.7v0
			C146.5,106.8,124.3,129,96.8,129.1L96.8,129.1z"/>
		<path class="st1" d="M130.7,60.8c-1-1.8-3.3-2.5-5.1-1.5l-0.2,0.1c-1.7,1.1-2.3,3.2-1.3,5c8.2,15.1,2.7,33.9-12.4,42.1
			s-33.9,2.7-42.1-12.4S66.9,60.3,82,52c6-3.3,13-4.5,19.8-3.4c2,0.3,3.8-1,4.3-2.9c0-0.1,0-0.1,0-0.2c0.3-2.1-1.1-4-3.1-4.3
			c-2-0.3-4-0.5-6.1-0.5c-21.3,0-38.6,17.3-38.5,38.6c0,21.3,17.3,38.6,38.6,38.5s38.6-17.3,38.5-38.6
			C135.4,72.8,133.8,66.5,130.7,60.8L130.7,60.8z"/>
		<path class="st1" d="M121,47.7c-0.2-0.2-0.4-0.3-0.6-0.5c-0.2-0.1-0.4-0.3-0.7-0.3c-0.2-0.1-0.5-0.2-0.7-0.2c-0.5-0.1-1-0.1-1.5,0
			c-0.2,0-0.5,0.1-0.7,0.2c-0.2,0.1-0.4,0.2-0.7,0.3c-0.2,0.1-0.4,0.3-0.6,0.5c-0.2,0.2-0.3,0.4-0.5,0.6c-0.1,0.2-0.3,0.4-0.3,0.7
			c-0.1,0.1-0.1,0.3-0.2,0.4c0,0.1,0,0.2-0.1,0.3c-0.1,0.2-0.1,0.5-0.1,0.7c0,0.2,0,0.5,0.1,0.7c0.1,0.2,0.1,0.5,0.2,0.7
			c0.1,0.2,0.2,0.4,0.3,0.7c0.1,0.2,0.3,0.4,0.5,0.6c0.2,0.2,0.4,0.3,0.6,0.5c0.2,0.1,0.4,0.3,0.7,0.3c0.2,0.1,0.5,0.2,0.7,0.2
			c0.2,0,0.5,0.1,0.7,0.1c0.2,0,0.5,0,0.7-0.1c0.2-0.1,0.5-0.1,0.7-0.2c0.2-0.1,0.4-0.2,0.6-0.3l0.1,0c0.2-0.1,0.4-0.3,0.6-0.5
			c0.2-0.2,0.3-0.4,0.5-0.6c0.1-0.2,0.3-0.4,0.3-0.7c0.2-0.5,0.3-0.9,0.3-1.4C122.1,49.4,121.7,48.4,121,47.7z"/>
		<path class="st1" d="M193.4,133.4l-12.2-99.8c-1.4-11.2-6.3-21.7-14.1-30l-0.3-0.3c-3.1-3.4-8.4-3.5-11.8-0.4
			c-1.9,1.8-2.9,4.5-2.6,7.1l15.5,126.5c0,0.4,0.1,0.8,0.2,1.2c1.3,5.9,6.5,10.1,12.5,10.1c0.5,0,1,0,1.6-0.1c4-0.5,7.6-2.9,9.6-6.4
			c0.2-0.4,0.4-0.7,0.6-1.1c0.2-0.4,0.3-0.8,0.4-1.1C193.4,137.3,193.6,135.3,193.4,133.4z M159.8,9.1c-0.1-0.3,0.1-0.7,0.4-0.8
			c0.1-0.1,0.2-0.1,0.4-0.1c0.2,0,0.4,0.1,0.5,0.2l0.3,0.4c2.5,2.7,4.7,5.7,6.6,8.9c3,5.2,4.8,10.9,5.6,16.9l6.5,53.2L169.6,89
			L159.8,9.1z M185.5,136.9c-1.1,2.7-4.1,4.1-6.9,3c-1.8-0.7-3.1-2.3-3.3-4.3l-4.8-39.1l10.5-1.3l4.8,39.1
			C186,135.2,185.9,136.1,185.5,136.9z"/>
		<path class="st1" d="M46.6,4.3c-2.1-0.3-4,1.2-4.2,3.3c0,0,0,0,0,0l-3.4,28c-0.5,4.3-4.1,7.7-8.4,7.9L28,43.2l4.5-36.8
			c0.3-2.1-1.2-4-3.3-4.2s-4,1.2-4.2,3.3l0,0l-4.5,36.8L18,42c-4.2-1.3-6.8-5.4-6.3-9.7l3.4-28c0.2-2.1-1.3-3.9-3.4-4.1
			C9.8,0,8,1.4,7.7,3.4l-3.4,28C3.4,38.2,6.9,44.8,13,48L0.2,130.8l0,0c-1.1,7.2,3.9,13.9,11.1,15c0.1,0,0.2,0,0.3,0h0.1
			c7.2,0.9,13.8-4.2,14.7-11.4c0-0.1,0-0.3,0-0.4l7.6-83.3c6.7-1.6,11.7-7.2,12.5-14.1l3.4-28C50.1,6.4,48.7,4.5,46.6,4.3z
			 M18.8,133.2c-0.3,3.1-3.1,5.3-6.1,5c0,0-0.1,0-0.1,0h-0.1c-3.1-0.4-5.3-3.2-4.9-6.3c0,0,0-0.1,0-0.1l12.8-82l3,0.4l0,0l3,0.4
			L18.8,133.2z"/>
	</g>
</g>
</svg>
