<svg xmlns="http://www.w3.org/2000/svg" viewBox="0 0 643.36 159.74"><defs><style>.cls-1{font-size:143.6px;font-family:Fragille-Reguler, Reguler;letter-spacing:-0.05em;}.cls-1,.cls-3{fill:#fff;}.cls-2{letter-spacing:0em;}</style></defs><g id="Capa_2" data-name="Capa 2"><g id="Capa_1-2" data-name="Capa 1"><text class="cls-1" transform="translate(205.8 129.01)">T<tspan class="cls-2" x="83.58" y="0">astify</tspan></text><path class="cls-3" d="M96.84,22.05A57.26,57.26,0,1,0,154.1,79.31,57.32,57.32,0,0,0,96.84,22.05Zm0,107a49.7,49.7,0,1,1,49.7-49.7A49.76,49.76,0,0,1,96.84,129Z"/><path class="cls-3" d="M130.74,60.84a3.79,3.79,0,0,0-5.13-1.51l-.18.11a3.79,3.79,0,0,0-1.33,5,31.06,31.06,0,1,1-22.36-15.8A3.78,3.78,0,0,0,106,45.72a1.42,1.42,0,0,0,0-.2,3.79,3.79,0,0,0-3.14-4.33,39.67,39.67,0,0,0-6.08-.47,38.57,38.57,0,1,0,33.9,20.12Z"/><path class="cls-3" d="M121,47.73a3.19,3.19,0,0,0-.57-.46,3.13,3.13,0,0,0-.65-.35,3.64,3.64,0,0,0-.71-.22,3.69,3.69,0,0,0-1.48,0,3.55,3.55,0,0,0-.7.22,3.13,3.13,0,0,0-.65.35,3.66,3.66,0,0,0-.58.46,3.73,3.73,0,0,0-.47.58,3.68,3.68,0,0,0-.35.65,3.81,3.81,0,0,0-.15.44,2.61,2.61,0,0,0-.06.27,3.65,3.65,0,0,0-.08.74,3.81,3.81,0,0,0,.08.74,4.33,4.33,0,0,0,.21.7,3.68,3.68,0,0,0,.35.65,3.73,3.73,0,0,0,.47.58,4.41,4.41,0,0,0,.58.47,3.68,3.68,0,0,0,.65.35,4.33,4.33,0,0,0,.7.21,3.78,3.78,0,0,0,.74.07,3.64,3.64,0,0,0,.74-.07,4.44,4.44,0,0,0,.71-.21,3.37,3.37,0,0,0,.56-.3l.09-.05a3.75,3.75,0,0,0,.57-.47,3.23,3.23,0,0,0,.47-.58,3.13,3.13,0,0,0,.35-.65,3.52,3.52,0,0,0,.29-1.44A3.8,3.8,0,0,0,121,47.73Z"/><path class="cls-3" d="M193.36,133.42,181.11,33.61A53.13,53.13,0,0,0,167,3.63l-.33-.34A8.32,8.32,0,0,0,152.34,10l15.53,126.52c0,.41.12.81.2,1.2a12.87,12.87,0,0,0,12.54,10.08,11.93,11.93,0,0,0,1.57-.1,12.81,12.81,0,0,0,9.58-6.38,10.38,10.38,0,0,0,.57-1.1,11.42,11.42,0,0,0,.45-1.15A12.69,12.69,0,0,0,193.36,133.42ZM159.84,9.11a.69.69,0,0,1,.43-.79.8.8,0,0,1,.37-.09.69.69,0,0,1,.52.25l.33.35a45.78,45.78,0,0,1,6.56,8.86,45.11,45.11,0,0,1,5.56,16.85l6.53,53.19L169.65,89Zm25.7,127.81a5.29,5.29,0,0,1-10.17-1.29l-4.8-39.11,10.49-1.29,4.8,39.11A5.3,5.3,0,0,1,185.54,136.92Z"/><path class="cls-3" d="M46.6,4.29a3.77,3.77,0,0,0-4.21,3.29L39,35.57a9,9,0,0,1-8.42,7.92L28,43.18,32.54,6.37A3.78,3.78,0,1,0,25,5.45L20.52,42.26,18,42a9,9,0,0,1-6.26-9.72l3.44-28a3.78,3.78,0,0,0-7.5-.92l-3.44,28A16.5,16.5,0,0,0,13,48L.15,130.75v0a13.16,13.16,0,0,0,11.41,15h.07A13.15,13.15,0,0,0,26.33,133.9l7.59-83.31a16.49,16.49,0,0,0,12.53-14.1l3.44-28A3.78,3.78,0,0,0,46.6,4.29ZM18.8,133.21a5.6,5.6,0,0,1-6.25,5h-.07a5.61,5.61,0,0,1-4.86-6.37l12.75-82,3,.37h0l3,.36Z"/></g></g></svg>